<svg width="1574" height="836" viewBox="0 0 1574 836" fill="none" xmlns="http://www.w3.org/2000/svg">
<path d="M286.216 518.8C306.072 482.984 341.428 458.412 381.92 452.287L1573.88 272V836H224.396C183.377 836 151.974 799.497 158.101 758.938V758.938C159.343 750.712 162.045 742.774 166.079 735.498L286.216 518.8Z" fill="url(#paint0_linear_737_555)"/>
<ellipse cx="1537.4" cy="775.28" rx="420.15" ry="369.28" fill="white" fill-opacity="0.05"/>
<path d="M1845.09 775.28C1845.09 920.036 1710.46 1042.7 1537.4 1042.7C1364.33 1042.7 1229.7 920.036 1229.7 775.28C1229.7 630.524 1364.33 507.864 1537.4 507.864C1710.46 507.864 1845.09 630.524 1845.09 775.28Z" stroke="white" stroke-opacity="0.1" stroke-width="50"/>
<path d="M1750.04 775.28C1750.04 873.894 1657.96 959.149 1537.4 959.149C1416.83 959.149 1324.75 873.894 1324.75 775.28C1324.75 676.666 1416.83 591.411 1537.4 591.411C1657.96 591.411 1750.04 676.666 1750.04 775.28Z" stroke="white" stroke-opacity="0.1" stroke-width="50"/>
<ellipse cx="1537.4" cy="775.28" rx="118.821" ry="104.434" fill="white" fill-opacity="0.05"/>
<ellipse cx="728.341" cy="324.28" rx="368.951" ry="324.28" fill="white" fill-opacity="0.05"/>
<path d="M995.497 324.28C995.497 449.356 879.016 556.063 728.341 556.063C577.666 556.063 461.186 449.356 461.186 324.28C461.186 199.204 577.666 92.4971 728.341 92.4971C879.016 92.4971 995.497 199.204 995.497 324.28Z" stroke="white" stroke-opacity="0.1" stroke-width="50"/>
<path d="M912.024 324.28C912.024 408.837 832.915 482.696 728.341 482.696C623.767 482.696 544.659 408.837 544.659 324.28C544.659 239.723 623.767 165.864 728.341 165.864C832.915 165.864 912.024 239.723 912.024 324.28Z" stroke="white" stroke-opacity="0.1" stroke-width="50"/>
<ellipse cx="728.341" cy="324.28" rx="104.341" ry="91.7082" fill="white" fill-opacity="0.05"/>
<path d="M331.136 790.87C331.259 792.559 331.331 794.261 331.351 795.974L330.851 795.98C330.855 796.319 330.857 796.659 330.857 797C330.857 797.341 330.855 797.681 330.851 798.02L331.351 798.026C331.331 799.739 331.259 801.441 331.136 803.13L330.637 803.094C330.588 803.771 330.531 804.446 330.466 805.119L330.964 805.167C330.799 806.869 330.583 808.558 330.318 810.233L329.824 810.154C329.718 810.824 329.604 811.491 329.482 812.156L329.973 812.246C329.665 813.926 329.307 815.591 328.899 817.24L328.414 817.121C328.252 817.779 328.081 818.434 327.903 819.087L328.386 819.218C327.937 820.864 327.44 822.493 326.895 824.103L326.421 823.943C326.204 824.585 325.98 825.224 325.747 825.86L326.217 826.031C325.633 827.632 325.002 829.214 324.325 830.776L323.866 830.577C323.597 831.198 323.32 831.817 323.037 832.432L323.491 832.641C322.778 834.187 322.019 835.712 321.218 837.216L320.777 836.98C320.458 837.578 320.133 838.172 319.8 838.762L320.236 839.007C319.402 840.49 318.525 841.95 317.606 843.386L317.185 843.117C316.82 843.688 316.449 844.254 316.071 844.818L316.486 845.096C315.538 846.508 314.551 847.896 313.524 849.258L313.124 848.958C312.717 849.498 312.304 850.034 311.885 850.567L312.277 850.876C311.226 852.211 310.136 853.52 309.01 854.803L308.634 854.473C308.187 854.982 307.735 855.487 307.276 855.987L307.645 856.325C306.498 857.578 305.315 858.804 304.098 860.002L303.747 859.646C303.265 860.12 302.778 860.59 302.285 861.056L302.628 861.419C301.394 862.585 300.127 863.724 298.829 864.833L298.504 864.453C297.989 864.893 297.468 865.328 296.943 865.759L297.26 866.145C295.947 867.222 294.604 868.269 293.231 869.287L292.933 868.885C292.39 869.288 291.842 869.686 291.289 870.079L291.579 870.486C290.196 871.47 288.784 872.423 287.346 873.346L287.076 872.925C286.506 873.29 285.931 873.651 285.353 874.007L285.615 874.433C284.169 875.321 282.697 876.179 281.2 877.004L280.959 876.566C280.366 876.893 279.769 877.215 279.168 877.532L279.402 877.974C277.901 878.765 276.376 879.525 274.829 880.251L274.617 879.799C274.004 880.086 273.388 880.369 272.768 880.646L272.972 881.102C271.424 881.795 269.853 882.455 268.263 883.081L268.079 882.616C267.448 882.864 266.814 883.107 266.176 883.345L266.351 883.813C264.762 884.406 263.153 884.965 261.525 885.489L261.372 885.014C260.729 885.221 260.083 885.423 259.434 885.619L259.579 886.098C257.956 886.589 256.315 887.047 254.658 887.469L254.535 886.985C253.878 887.152 253.218 887.314 252.556 887.471L252.671 887.957C251.021 888.347 249.356 888.703 247.675 889.023L247.582 888.531C246.917 888.658 246.25 888.779 245.58 888.895L245.665 889.387C243.995 889.676 242.31 889.929 240.613 890.146L240.549 889.65C239.879 889.736 239.206 889.817 238.532 889.891L238.587 890.388C236.903 890.575 235.206 890.726 233.499 890.842L233.465 890.343C232.788 890.389 232.11 890.429 231.429 890.464L231.455 890.963C229.763 891.048 228.061 891.099 226.35 891.113L226.345 890.613C226.005 890.616 225.664 890.618 225.323 890.618C224.982 890.618 224.641 890.616 224.301 890.613L224.297 891.113C222.585 891.099 220.883 891.048 219.192 890.963L219.217 890.464C218.537 890.429 217.858 890.389 217.181 890.343L217.148 890.842C215.44 890.726 213.744 890.575 212.06 890.388L212.115 889.891C211.44 889.817 210.768 889.736 210.097 889.65L210.033 890.146C208.336 889.929 206.652 889.676 204.981 889.387L205.066 888.895C204.397 888.779 203.729 888.658 203.064 888.531L202.971 889.023C201.29 888.703 199.625 888.347 197.975 887.957L198.09 887.471C197.428 887.314 196.768 887.152 196.112 886.985L195.988 887.469C194.331 887.047 192.69 886.589 191.067 886.098L191.212 885.619C190.563 885.423 189.917 885.221 189.274 885.014L189.121 885.489C187.493 884.965 185.884 884.406 184.295 883.813L184.47 883.345C183.832 883.107 183.198 882.864 182.567 882.616L182.384 883.081C180.793 882.455 179.222 881.795 177.674 881.102L177.878 880.646C177.258 880.369 176.642 880.086 176.03 879.799L175.817 880.251C174.27 879.525 172.745 878.765 171.245 877.974L171.478 877.532C170.877 877.215 170.28 876.893 169.687 876.566L169.446 877.004C167.949 876.179 166.477 875.321 165.032 874.433L165.293 874.007C164.715 873.651 164.14 873.29 163.57 872.925L163.3 873.346C161.862 872.423 160.45 871.47 159.067 870.486L159.357 870.079C158.804 869.686 158.256 869.288 157.713 868.885L157.415 869.287C156.042 868.269 154.699 867.222 153.386 866.145L153.703 865.759C153.178 865.328 152.658 864.893 152.142 864.453L151.818 864.833C150.519 863.724 149.252 862.585 148.018 861.419L148.361 861.056C147.868 860.59 147.381 860.12 146.899 859.646L146.548 860.002C145.331 858.804 144.148 857.578 143.001 856.325L143.37 855.987C142.911 855.487 142.459 854.982 142.012 854.473L141.636 854.803C140.51 853.52 139.42 852.211 138.369 850.876L138.762 850.567C138.342 850.034 137.929 849.498 137.522 848.958L137.122 849.258C136.095 847.896 135.108 846.508 134.16 845.096L134.575 844.817C134.198 844.254 133.826 843.688 133.461 843.117L133.04 843.386C132.122 841.95 131.244 840.49 130.41 839.007L130.846 838.762C130.514 838.172 130.188 837.578 129.87 836.98L129.428 837.216C128.627 835.712 127.869 834.187 127.155 832.641L127.609 832.432C127.326 831.817 127.049 831.198 126.78 830.577L126.321 830.776C125.644 829.214 125.013 827.632 124.429 826.031L124.899 825.86C124.667 825.224 124.442 824.585 124.225 823.943L123.751 824.103C123.207 822.493 122.709 820.864 122.26 819.218L122.743 819.087C122.565 818.434 122.395 817.779 122.232 817.12L121.747 817.24C121.34 815.591 120.981 813.926 120.673 812.246L121.165 812.156C121.043 811.491 120.928 810.824 120.822 810.154L120.328 810.233C120.063 808.558 119.847 806.869 119.682 805.167L120.18 805.119C120.115 804.446 120.058 803.771 120.009 803.094L119.51 803.13C119.388 801.441 119.315 799.739 119.295 798.026L119.795 798.02C119.791 797.681 119.789 797.34 119.789 797C119.789 796.659 119.791 796.319 119.795 795.98L119.295 795.974C119.315 794.261 119.388 792.559 119.51 790.87L120.009 790.906C120.058 790.229 120.115 789.554 120.18 788.881L119.682 788.833C119.847 787.131 120.063 785.442 120.329 783.767L120.822 783.846C120.928 783.176 121.043 782.509 121.165 781.844L120.673 781.754C120.981 780.074 121.34 778.409 121.747 776.76L122.232 776.879C122.395 776.221 122.565 775.566 122.743 774.913L122.26 774.782C122.709 773.136 123.207 771.507 123.751 769.897L124.225 770.057C124.442 769.415 124.667 768.776 124.899 768.14L124.429 767.969C125.013 766.368 125.644 764.786 126.321 763.224L126.78 763.423C127.049 762.802 127.326 762.183 127.609 761.568L127.155 761.359C127.869 759.813 128.627 758.288 129.428 756.784L129.87 757.019C130.188 756.422 130.514 755.828 130.846 755.238L130.41 754.993C131.245 753.51 132.122 752.05 133.04 750.614L133.461 750.883C133.826 750.312 134.198 749.746 134.575 749.182L134.16 748.904C135.108 747.492 136.095 746.104 137.122 744.741L137.522 745.042C137.929 744.502 138.342 743.966 138.762 743.433L138.369 743.124C139.42 741.789 140.51 740.48 141.636 739.197L142.012 739.527C142.459 739.018 142.911 738.513 143.37 738.013L143.001 737.675C144.148 736.422 145.331 735.196 146.548 733.998L146.899 734.354C147.381 733.88 147.868 733.41 148.361 732.944L148.018 732.581C149.252 731.414 150.519 730.276 151.818 729.167L152.142 729.547C152.658 729.107 153.178 728.672 153.703 728.241L153.386 727.855C154.699 726.778 156.042 725.731 157.415 724.713L157.713 725.115C158.256 724.712 158.804 724.314 159.357 723.921L159.067 723.514C160.45 722.53 161.862 721.577 163.3 720.654L163.57 721.075C164.14 720.71 164.715 720.349 165.293 719.993L165.032 719.567C166.477 718.679 167.949 717.821 169.446 716.996L169.687 717.434C170.28 717.107 170.877 716.785 171.478 716.468L171.245 716.026C172.745 715.235 174.27 714.475 175.817 713.749L176.03 714.201C176.642 713.914 177.258 713.631 177.878 713.354L177.674 712.898C179.222 712.205 180.793 711.545 182.384 710.919L182.567 711.384C183.198 711.136 183.832 710.893 184.47 710.655L184.295 710.187C185.884 709.594 187.493 709.035 189.121 708.511L189.274 708.986C189.917 708.779 190.563 708.577 191.212 708.381L191.067 707.902C192.69 707.411 194.331 706.953 195.988 706.531L196.112 707.015C196.768 706.848 197.428 706.686 198.09 706.529L197.975 706.043C199.625 705.653 201.29 705.297 202.971 704.977L203.064 705.468C203.729 705.342 204.397 705.221 205.066 705.105L204.981 704.613C206.652 704.324 208.336 704.071 210.033 703.854L210.097 704.349C210.768 704.264 211.44 704.183 212.115 704.108L212.06 703.612C213.744 703.425 215.44 703.274 217.147 703.158L217.181 703.657C217.858 703.611 218.537 703.571 219.217 703.536L219.192 703.037C220.883 702.951 222.585 702.901 224.296 702.887L224.301 703.387C224.641 703.384 224.982 703.382 225.323 703.382C225.664 703.382 226.005 703.384 226.345 703.387L226.35 702.887C228.061 702.901 229.763 702.951 231.455 703.037L231.429 703.536C232.11 703.571 232.788 703.611 233.465 703.657L233.499 703.158C235.206 703.274 236.903 703.425 238.587 703.612L238.532 704.108C239.206 704.183 239.879 704.264 240.549 704.349L240.613 703.854C242.31 704.071 243.995 704.324 245.665 704.613L245.58 705.105C246.25 705.221 246.917 705.342 247.582 705.468L247.675 704.977C249.356 705.297 251.021 705.653 252.671 706.043L252.556 706.529C253.218 706.686 253.878 706.848 254.535 707.015L254.658 706.531C256.315 706.953 257.956 707.411 259.579 707.902L259.434 708.381C260.083 708.577 260.729 708.779 261.372 708.986L261.525 708.511C263.153 709.035 264.762 709.594 266.351 710.187L266.176 710.655C266.814 710.893 267.448 711.136 268.079 711.384L268.263 710.919C269.853 711.545 271.424 712.205 272.972 712.898L272.768 713.354C273.388 713.631 274.004 713.914 274.617 714.201L274.829 713.749C276.376 714.475 277.901 715.235 279.402 716.026L279.168 716.468C279.769 716.785 280.366 717.107 280.959 717.434L281.2 716.996C282.697 717.821 284.169 718.679 285.615 719.567L285.353 719.993C285.931 720.349 286.506 720.71 287.076 721.075L287.346 720.654C288.784 721.577 290.196 722.53 291.579 723.514L291.289 723.921C291.842 724.314 292.39 724.712 292.933 725.115L293.231 724.713C294.604 725.731 295.947 726.778 297.26 727.855L296.943 728.241C297.468 728.672 297.989 729.107 298.504 729.547L298.829 729.167C300.127 730.276 301.394 731.414 302.628 732.581L302.285 732.944C302.778 733.41 303.265 733.88 303.747 734.354L304.098 733.998C305.315 735.196 306.498 736.422 307.645 737.675L307.276 738.013C307.735 738.513 308.187 739.018 308.634 739.527L309.01 739.197C310.136 740.48 311.226 741.789 312.277 743.124L311.885 743.433C312.304 743.966 312.717 744.502 313.124 745.042L313.524 744.741C314.551 746.104 315.539 747.492 316.486 748.904L316.071 749.182C316.449 749.746 316.82 750.312 317.185 750.883L317.606 750.614C318.525 752.05 319.402 753.51 320.236 754.993L319.8 755.238C320.133 755.828 320.458 756.422 320.777 757.019L321.218 756.784C322.019 758.288 322.778 759.813 323.491 761.359L323.037 761.568C323.32 762.183 323.597 762.802 323.866 763.423L324.325 763.224C325.002 764.786 325.633 766.368 326.217 767.969L325.747 768.14C325.98 768.776 326.204 769.415 326.421 770.057L326.895 769.897C327.44 771.507 327.937 773.136 328.386 774.782L327.903 774.913C328.081 775.566 328.252 776.221 328.414 776.879L328.899 776.76C329.307 778.409 329.665 780.074 329.973 781.754L329.482 781.844C329.604 782.509 329.718 783.176 329.824 783.846L330.318 783.767C330.583 785.442 330.799 787.131 330.964 788.833L330.466 788.881C330.531 789.554 330.588 790.229 330.637 790.906L331.136 790.87Z" stroke="#F1F1FF" stroke-dasharray="2 5"/>
<path d="M450.547 791.016C450.602 792.672 450.634 794.334 450.643 796L450.143 796.003C450.145 796.335 450.146 796.667 450.146 797C450.146 797.333 450.145 797.665 450.143 797.997L450.643 798C450.634 799.666 450.602 801.328 450.547 802.984L450.048 802.967C450.026 803.628 450 804.288 449.971 804.947L450.471 804.969C450.397 806.63 450.301 808.286 450.182 809.936L449.684 809.9C449.636 810.562 449.585 811.222 449.53 811.882L450.028 811.923C449.891 813.577 449.731 815.225 449.548 816.867L449.052 816.812C448.978 817.471 448.902 818.128 448.821 818.785L449.317 818.846C449.115 820.497 448.891 822.142 448.644 823.78L448.149 823.706C448.051 824.359 447.949 825.012 447.843 825.663L448.337 825.744C448.071 827.384 447.782 829.018 447.472 830.645L446.98 830.551C446.856 831.202 446.729 831.851 446.597 832.5L447.087 832.599C446.758 834.225 446.407 835.843 446.034 837.455L445.547 837.343C445.398 837.988 445.245 838.633 445.088 839.277L445.574 839.395C445.181 841.009 444.767 842.615 444.331 844.214L443.849 844.082C443.675 844.72 443.498 845.357 443.317 845.992L443.798 846.129C443.343 847.726 442.867 849.316 442.37 850.897L441.893 850.747C441.694 851.379 441.492 852.009 441.287 852.638L441.762 852.793C441.247 854.37 440.711 855.939 440.153 857.499L439.683 857.331C439.46 857.954 439.234 858.577 439.004 859.197L439.474 859.371C438.899 860.927 438.303 862.475 437.686 864.014L437.222 863.828C436.976 864.442 436.727 865.055 436.474 865.666L436.936 865.857C436.303 867.39 435.649 868.915 434.975 870.43L434.518 870.227C434.249 870.831 433.977 871.434 433.701 872.036L434.156 872.244C433.466 873.752 432.755 875.251 432.025 876.74L431.576 876.52C431.285 877.114 430.99 877.706 430.693 878.297L431.139 878.522C430.394 880.004 429.628 881.475 428.843 882.937L428.403 882.701C428.09 883.284 427.774 883.865 427.455 884.445L427.893 884.686C427.093 886.138 426.275 887.58 425.437 889.012L425.006 888.76C424.672 889.331 424.334 889.901 423.994 890.469L424.423 890.726C423.572 892.148 422.702 893.559 421.813 894.961L421.391 894.693C421.037 895.251 420.679 895.808 420.319 896.364L420.739 896.636C419.836 898.027 418.915 899.408 417.977 900.778L417.564 900.496C417.191 901.041 416.814 901.584 416.435 902.126L416.845 902.413C415.895 903.77 414.926 905.117 413.941 906.452L413.538 906.155C413.145 906.688 412.749 907.219 412.35 907.748L412.75 908.049C411.753 909.372 410.739 910.683 409.708 911.983L409.316 911.673C408.905 912.191 408.492 912.708 408.075 913.222L408.464 913.537C407.421 914.826 406.361 916.103 405.285 917.369L404.904 917.045C404.476 917.548 404.046 918.05 403.612 918.549L403.99 918.877C402.905 920.129 401.803 921.369 400.685 922.597L400.315 922.261C399.869 922.751 399.42 923.239 398.969 923.725L399.336 924.065C398.21 925.278 397.069 926.479 395.912 927.668L395.554 927.319C395.092 927.794 394.628 928.266 394.162 928.736L394.517 929.089C393.35 930.265 392.167 931.43 390.97 932.582L390.623 932.221C390.147 932.679 389.669 933.135 389.188 933.59L389.531 933.953C388.326 935.091 387.106 936.216 385.872 937.329L385.537 936.957C385.045 937.401 384.551 937.842 384.054 938.282L384.385 938.656C383.146 939.752 381.893 940.836 380.626 941.906L380.303 941.524C379.797 941.951 379.289 942.377 378.779 942.8L379.098 943.184C377.823 944.242 376.534 945.286 375.231 946.317L374.921 945.925C374.403 946.335 373.883 946.743 373.36 947.149L373.667 947.544C372.358 948.561 371.036 949.565 369.7 950.555L369.403 950.154C368.871 950.548 368.337 950.94 367.801 951.33L368.095 951.734C366.758 952.708 365.408 953.668 364.045 954.614L363.76 954.203C363.216 954.581 362.67 954.957 362.122 955.33L362.403 955.743C361.035 956.676 359.654 957.595 358.26 958.5L357.988 958.081C357.434 958.44 356.878 958.798 356.32 959.154L356.589 959.575C355.191 960.466 353.781 961.343 352.359 962.206L352.1 961.779C351.534 962.122 350.966 962.463 350.397 962.802L350.652 963.232C349.231 964.078 347.799 964.91 346.355 965.727L346.109 965.292C345.532 965.619 344.954 965.943 344.375 966.264L344.617 966.702C343.169 967.505 341.71 968.295 340.24 969.07L340.007 968.628C339.422 968.936 338.836 969.242 338.249 969.545L338.478 969.99C337.005 970.75 335.522 971.496 334.029 972.228L333.809 971.779C333.214 972.07 332.617 972.359 332.019 972.646L332.235 973.097C330.745 973.811 329.244 974.511 327.733 975.197L327.527 974.741C327.251 974.866 326.976 974.991 326.7 975.114C326.372 975.262 326.042 975.409 325.713 975.555L325.916 976.012C324.401 976.684 322.877 977.341 321.344 977.983L321.151 977.522C320.542 977.777 319.931 978.029 319.319 978.28L319.508 978.743C317.975 979.37 316.432 979.982 314.88 980.579L314.701 980.113C314.081 980.351 313.46 980.587 312.838 980.821L313.014 981.289C311.467 981.869 309.912 982.435 308.348 982.985L308.182 982.514C307.557 982.734 306.932 982.951 306.305 983.166L306.467 983.639C304.899 984.176 303.322 984.699 301.738 985.206L301.585 984.729C300.957 984.93 300.327 985.129 299.696 985.325L299.845 985.803C298.264 986.294 296.675 986.771 295.078 987.232L294.939 986.751C294.302 986.935 293.663 987.117 293.023 987.296L293.158 987.777C291.566 988.223 289.967 988.653 288.361 989.068L288.236 988.584C287.595 988.749 286.954 988.912 286.311 989.072L286.432 989.557C284.822 989.959 283.205 990.345 281.581 990.716L281.469 990.228C280.827 990.375 280.183 990.519 279.538 990.661L279.646 991.149C278.03 991.504 276.408 991.843 274.78 992.167L274.682 991.677C274.032 991.806 273.381 991.933 272.728 992.057L272.822 992.548C271.197 992.858 269.565 993.152 267.927 993.43L267.843 992.937C267.192 993.048 266.54 993.156 265.887 993.261L265.967 993.755C264.33 994.02 262.688 994.268 261.039 994.501L260.969 994.006C260.313 994.099 259.656 994.189 258.998 994.277L259.064 994.773C257.428 994.991 255.785 995.193 254.138 995.38L254.081 994.883C253.423 994.958 252.765 995.03 252.105 995.099L252.157 995.596C250.509 995.77 248.856 995.928 247.197 996.07L247.154 995.572C246.497 995.628 245.839 995.681 245.181 995.732L245.22 996.231C243.57 996.359 241.915 996.471 240.256 996.568L240.227 996.069C239.564 996.107 238.901 996.143 238.237 996.176L238.262 996.676C236.612 996.759 234.957 996.826 233.298 996.877L233.282 996.377C232.622 996.398 231.961 996.416 231.299 996.431L231.31 996.931C229.652 996.969 227.99 996.992 226.324 996.998L226.322 996.498C225.989 996.499 225.656 996.5 225.323 996.5C224.99 996.5 224.657 996.499 224.325 996.498L224.323 996.998C222.656 996.992 220.994 996.969 219.336 996.931L219.347 996.431C218.686 996.416 218.024 996.398 217.364 996.377L217.348 996.877C215.689 996.826 214.034 996.759 212.384 996.676L212.41 996.176C211.745 996.143 211.082 996.107 210.42 996.069L210.391 996.568C208.731 996.471 207.076 996.359 205.427 996.231L205.465 995.732C204.807 995.681 204.149 995.628 203.492 995.572L203.449 996.07C201.791 995.928 200.137 995.77 198.489 995.596L198.541 995.099C197.881 995.03 197.223 994.958 196.565 994.883L196.509 995.38C194.861 995.193 193.218 994.991 191.582 994.773L191.648 994.277C190.99 994.189 190.333 994.099 189.677 994.006L189.607 994.501C187.958 994.268 186.316 994.02 184.68 993.755L184.759 993.261C184.106 993.156 183.454 993.048 182.803 992.937L182.719 993.43C181.081 993.152 179.449 992.858 177.824 992.548L177.918 992.057C177.665 992.009 177.413 991.961 177.161 991.912C176.762 991.834 176.363 991.756 175.964 991.677L175.867 992.167C174.238 991.843 172.616 991.504 171 991.149L171.108 990.661C170.463 990.519 169.819 990.375 169.177 990.228L169.065 990.716C167.441 990.345 165.824 989.959 164.214 989.557L164.335 989.072C163.692 988.912 163.051 988.749 162.41 988.584L162.285 989.068C160.679 988.653 159.08 988.223 157.488 987.777L157.623 987.296C156.983 987.117 156.344 986.935 155.707 986.751L155.568 987.232C153.971 986.771 152.382 986.294 150.801 985.803L150.95 985.325C150.319 985.129 149.689 984.93 149.061 984.729L148.908 985.205C147.324 984.698 145.747 984.176 144.179 983.639L144.341 983.166C143.714 982.951 143.089 982.733 142.464 982.514L142.298 982.985C140.734 982.435 139.179 981.869 137.632 981.289L137.808 980.821C137.186 980.587 136.565 980.351 135.945 980.113L135.766 980.579C134.214 979.982 132.671 979.37 131.138 978.743L131.327 978.28C130.715 978.029 130.104 977.777 129.495 977.522L129.302 977.983C127.769 977.341 126.245 976.684 124.73 976.012L124.933 975.555C124.327 975.286 123.722 975.015 123.12 974.741L122.913 975.197C121.402 974.511 119.902 973.811 118.411 973.097L118.627 972.646C118.029 972.359 117.432 972.07 116.837 971.779L116.617 972.228C115.124 971.496 113.641 970.75 112.168 969.989L112.397 969.545C111.81 969.242 111.224 968.936 110.639 968.628L110.406 969.07C108.936 968.295 107.477 967.505 106.029 966.702L106.272 966.264C105.692 965.943 105.114 965.619 104.537 965.292L104.291 965.727C102.847 964.91 101.415 964.078 99.9937 963.232L100.249 962.802C99.6798 962.463 99.1121 962.122 98.5462 961.779L98.2868 962.206C96.8652 961.343 95.4554 960.466 94.0575 959.575L94.3262 959.154C93.7682 958.798 93.2122 958.44 92.6581 958.08L92.3858 958.5C90.9925 957.595 89.6113 956.676 88.2426 955.743L88.5241 955.33C87.9762 954.956 87.4303 954.581 86.8864 954.203L86.6012 954.614C85.2384 953.668 83.8882 952.708 82.5509 951.734L82.8451 951.33C82.3091 950.94 81.7753 950.548 81.2435 950.153L80.9456 950.555C79.6103 949.565 78.288 948.561 76.9791 947.544L77.2859 947.149C76.7635 946.743 76.2433 946.335 75.7252 945.925L75.4149 946.317C74.1121 945.286 72.823 944.242 71.5477 943.184L71.8668 942.799C71.3566 942.376 70.8486 941.951 70.3429 941.524L70.0202 941.906C68.753 940.836 67.4997 939.752 66.2607 938.656L66.592 938.282C66.0953 937.842 65.6009 937.401 65.1088 936.957L64.774 937.329C63.5396 936.216 62.3198 935.091 61.1148 933.953L61.4581 933.589C60.9772 933.135 60.4988 932.679 60.0226 932.221L59.676 932.582C58.4786 931.43 57.2964 930.265 56.1294 929.088L56.4844 928.736C56.018 928.266 55.554 927.794 55.0924 927.319L54.7341 927.668C53.5773 926.479 52.436 925.278 51.3105 924.065L51.677 923.725C51.2258 923.239 50.7771 922.751 50.331 922.261L49.9613 922.597C48.8433 921.369 47.7414 920.129 46.6558 918.877L47.0336 918.549C46.6004 918.05 46.1699 917.548 45.7419 917.045L45.361 917.369C44.2847 916.103 43.225 914.826 42.1822 913.537L42.5709 913.222C42.1544 912.708 41.7407 912.191 41.3296 911.673L40.9379 911.983C39.907 910.683 38.8931 909.372 37.8965 908.049L38.2958 907.748C37.897 907.219 37.5009 906.688 37.1076 906.155L36.7053 906.452C35.7197 905.116 34.7516 903.77 33.8012 902.412L34.2108 902.126C33.8317 901.584 33.4554 901.041 33.0819 900.496L32.6694 900.778C31.7306 899.408 30.8098 898.027 29.9073 896.636L30.3268 896.363C29.9667 895.808 29.6095 895.251 29.2553 894.693L28.833 894.961C27.9444 893.559 27.0743 892.148 26.2229 890.726L26.6519 890.469C26.3117 889.901 25.9746 889.331 25.6405 888.76L25.2089 889.012C24.3714 887.58 23.5528 886.138 22.7535 884.686L23.1916 884.444C22.8725 883.865 22.5565 883.284 22.2436 882.701L21.803 882.937C21.0181 881.475 20.2525 880.003 19.5066 878.522L19.9532 878.297C19.6557 877.706 19.3613 877.114 19.07 876.52L18.6211 876.74C17.8909 875.251 17.1805 873.752 16.4902 872.244L16.9448 872.036C16.6694 871.434 16.3972 870.831 16.1282 870.227L15.6714 870.43C14.9972 868.915 14.3432 867.39 13.7098 865.857L14.1719 865.666C13.9193 865.055 13.6701 864.442 13.4242 863.828L12.96 864.014C12.3435 862.475 11.7476 860.927 11.1726 859.371L11.6417 859.197C11.4123 858.577 11.1863 857.954 10.9636 857.331L10.4928 857.499C9.93545 855.939 9.39913 854.37 8.88408 852.793L9.35937 852.637C9.15401 852.009 8.95204 851.379 8.75348 850.747L8.27652 850.897C7.77905 849.316 7.30293 847.726 6.84847 846.129L7.32938 845.992C7.14859 845.357 6.97123 844.72 6.79734 844.082L6.31495 844.214C5.87899 842.615 5.46468 841.009 5.07231 839.395L5.55815 839.277C5.40164 838.633 5.24862 837.988 5.09913 837.342L4.61201 837.455C4.23898 835.843 3.8878 834.224 3.55875 832.599L4.04881 832.5C3.91758 831.851 3.78988 831.202 3.66573 830.551L3.17459 830.645C2.86404 829.018 2.57564 827.384 2.30965 825.743L2.80321 825.663C2.69756 825.012 2.59545 824.359 2.49692 823.706L2.0025 823.78C1.75547 822.142 1.53079 820.497 1.32874 818.846L1.82504 818.785C1.74464 818.128 1.66784 817.47 1.59464 816.812L1.0977 816.867C0.915254 815.225 0.755187 813.577 0.617771 811.923L1.11605 811.882C1.06124 811.222 1.01004 810.562 0.962474 809.9L0.463762 809.936C0.345066 808.286 0.248921 806.63 0.175595 804.969L0.675109 804.947C0.646015 804.288 0.620524 803.628 0.598652 802.967L0.0989258 802.984C0.0440949 801.328 0.0119504 799.666 0.0027586 798L0.502751 797.997C0.500918 797.665 0.5 797.333 0.5 797C0.5 796.667 0.500918 796.335 0.502751 796.003L0.00275852 796C0.0119501 794.334 0.0440944 792.672 0.0989251 791.016L0.598651 791.033C0.620523 790.372 0.646014 789.712 0.675108 789.053L0.175595 789.031C0.24892 787.37 0.345066 785.714 0.463762 784.064L0.962473 784.1C1.01004 783.438 1.06124 782.778 1.11605 782.118L0.617771 782.077C0.755187 780.423 0.915255 778.775 1.0977 777.133L1.59464 777.188C1.66784 776.529 1.74464 775.872 1.82504 775.215L1.32875 775.154C1.53079 773.503 1.75548 771.858 2.00251 770.22L2.49692 770.294C2.59546 769.641 2.69756 768.988 2.80321 768.337L2.30966 768.256C2.57564 766.616 2.86405 764.982 3.1746 763.355L3.66574 763.449C3.78989 762.798 3.91759 762.149 4.04882 761.5L3.55876 761.401C3.88781 759.775 4.23899 758.157 4.61202 756.545L5.09914 756.657C5.24864 756.012 5.40165 755.367 5.55817 754.723L5.07232 754.605C5.4647 752.991 5.87901 751.385 6.31496 749.786L6.79735 749.918C6.97125 749.28 7.14861 748.643 7.3294 748.008L6.84849 747.871C7.30296 746.274 7.77907 744.684 8.27654 743.103L8.7535 743.253C8.95206 742.621 9.15403 741.991 9.3594 741.362L8.88411 741.207C9.39915 739.63 9.93548 738.061 10.4928 736.501L10.9637 736.669C11.1863 736.046 11.4123 735.423 11.6417 734.803L11.1727 734.629C11.7476 733.073 12.3435 731.525 12.96 729.986L13.4242 730.172C13.6701 729.558 13.9194 728.945 14.1719 728.334L13.7098 728.143C14.3432 726.61 14.9972 725.085 15.6715 723.57L16.1283 723.773C16.3973 723.169 16.6695 722.566 16.9449 721.964L16.4902 721.756C17.1805 720.248 17.8909 718.749 18.6211 717.26L19.0701 717.48C19.3613 716.886 19.6557 716.294 19.9533 715.703L19.5067 715.478C20.2526 713.996 21.0181 712.525 21.8031 711.063L22.2436 711.299C22.5565 710.716 22.8726 710.135 23.1916 709.555L22.7536 709.314C23.5529 707.862 24.3715 706.42 25.2089 704.988L25.6406 705.24C25.9747 704.669 26.3118 704.099 26.652 703.531L26.223 703.274C27.0743 701.852 27.9445 700.441 28.8331 699.039L29.2554 699.307C29.6096 698.749 29.9667 698.192 30.3268 697.636L29.9073 697.364C30.8098 695.973 31.7307 694.592 32.6695 693.222L33.082 693.504C33.4554 692.959 33.8318 692.416 34.2109 691.874L33.8013 691.587C34.7516 690.23 35.7198 688.883 36.7054 687.548L37.1077 687.845C37.501 687.312 37.897 686.781 38.2959 686.252L37.8966 685.951C38.8932 684.628 39.9071 683.317 40.938 682.017L41.3297 682.327C41.7408 681.809 42.1545 681.292 42.571 680.778L42.1823 680.463C43.2252 679.174 44.2849 677.897 45.3611 676.631L45.742 676.955C46.17 676.452 46.6005 675.95 47.0337 675.451L46.6559 675.123C47.7415 673.871 48.8434 672.631 49.9614 671.403L50.3311 671.739C50.7772 671.249 51.2259 670.761 51.6771 670.275L51.3106 669.935C52.4361 668.722 53.5774 667.521 54.7342 666.332L55.0925 666.681C55.5541 666.206 56.0181 665.734 56.4845 665.264L56.1295 664.911C57.2965 663.735 58.4788 662.57 59.6761 661.418L60.0228 661.779C60.4989 661.321 60.9774 660.864 61.4582 660.41L61.1149 660.047C62.3199 658.909 63.5397 657.784 64.7741 656.671L65.1089 657.043C65.601 656.599 66.0954 656.158 66.5922 655.718L66.2609 655.344C67.4998 654.248 68.7531 653.164 70.0203 652.094L70.343 652.476C70.8487 652.049 71.3567 651.623 71.8669 651.2L71.5478 650.816C72.8231 649.758 74.1123 648.714 75.415 647.683L75.7253 648.075C76.2434 647.665 76.7636 647.257 77.286 646.851L76.9792 646.456C78.2881 645.439 79.6104 644.435 80.9458 643.445L81.2436 643.846C81.7754 643.452 82.3093 643.06 82.8452 642.67L82.551 642.266C83.8884 641.292 85.2386 640.332 86.6013 639.386L86.8865 639.797C87.4304 639.419 87.9763 639.043 88.5242 638.67L88.2427 638.257C89.6114 637.324 90.9926 636.405 92.3859 635.5L92.6583 635.919C93.2124 635.56 93.7684 635.202 94.3263 634.846L94.0576 634.425C95.4555 633.534 96.8653 632.657 98.2869 631.794L98.5463 632.221C99.1122 631.878 99.68 631.537 100.25 631.198L99.9939 630.768C101.415 629.922 102.847 629.09 104.291 628.273L104.538 628.708C105.114 628.381 105.692 628.057 106.272 627.736L106.029 627.298C107.477 626.495 108.936 625.705 110.406 624.93L110.639 625.372C111.224 625.064 111.81 624.758 112.398 624.455L112.168 624.011C113.641 623.25 115.124 622.504 116.617 621.772L116.837 622.221C117.432 621.93 118.029 621.641 118.627 621.354L118.411 620.903C119.902 620.189 121.402 619.489 122.913 618.803L123.12 619.259C123.723 618.985 124.327 618.714 124.933 618.445L124.731 617.988C126.245 617.316 127.769 616.659 129.302 616.017L129.495 616.478C130.105 616.223 130.715 615.971 131.327 615.72L131.138 615.257C132.671 614.63 134.214 614.018 135.766 613.421L135.946 613.887C136.565 613.649 137.186 613.413 137.808 613.179L137.632 612.711C139.179 612.131 140.734 611.565 142.298 611.015L142.464 611.486C143.089 611.266 143.714 611.049 144.341 610.834L144.179 610.361C145.747 609.824 147.324 609.301 148.908 608.794L149.061 609.271C149.689 609.07 150.319 608.871 150.95 608.675L150.802 608.197C152.383 607.706 153.972 607.229 155.568 606.768L155.707 607.249C156.344 607.065 156.983 606.883 157.623 606.704L157.488 606.222C159.08 605.777 160.679 605.347 162.286 604.932L162.411 605.416C163.051 605.251 163.692 605.088 164.335 604.928L164.214 604.443C165.824 604.041 167.441 603.655 169.065 603.284L169.177 603.772C169.819 603.625 170.463 603.481 171.108 603.339L171 602.851C172.616 602.496 174.238 602.157 175.867 601.833L175.964 602.323C176.614 602.194 177.266 602.067 177.918 601.943L177.824 601.452C179.45 601.142 181.081 600.848 182.719 600.57L182.803 601.063C183.454 600.952 184.106 600.844 184.759 600.739L184.68 600.245C186.316 599.981 187.958 599.732 189.607 599.499L189.677 599.994C190.333 599.901 190.99 599.811 191.648 599.723L191.582 599.227C193.218 599.009 194.861 598.807 196.509 598.62L196.565 599.117C197.223 599.042 197.882 598.97 198.541 598.901L198.489 598.404C200.137 598.23 201.791 598.072 203.45 597.93L203.492 598.428C204.149 598.372 204.807 598.319 205.465 598.268L205.427 597.769C207.076 597.641 208.731 597.529 210.391 597.432L210.42 597.931C211.082 597.893 211.745 597.857 212.41 597.824L212.384 597.324C214.034 597.241 215.689 597.174 217.348 597.123L217.364 597.623C218.024 597.602 218.686 597.584 219.347 597.569L219.336 597.069C220.994 597.031 222.656 597.008 224.323 597.002L224.325 597.502C224.657 597.501 224.99 597.5 225.323 597.5C225.656 597.5 225.989 597.501 226.322 597.502L226.324 597.002C227.99 597.008 229.653 597.031 231.31 597.069L231.299 597.569C231.961 597.584 232.622 597.602 233.282 597.623L233.298 597.123C234.957 597.174 236.612 597.241 238.262 597.324L238.237 597.824C238.901 597.857 239.564 597.893 240.227 597.931L240.256 597.432C241.915 597.529 243.57 597.641 245.22 597.769L245.181 598.268C245.839 598.319 246.497 598.372 247.154 598.429L247.197 597.93C248.856 598.072 250.509 598.23 252.157 598.404L252.105 598.901C252.765 598.97 253.423 599.042 254.081 599.117L254.138 598.62C255.785 598.807 257.428 599.009 259.064 599.227L258.998 599.723C259.656 599.811 260.313 599.901 260.97 599.994L261.039 599.499C262.688 599.732 264.33 599.981 265.967 600.245L265.887 600.739C266.54 600.844 267.192 600.952 267.843 601.063L267.927 600.57C269.565 600.848 271.197 601.142 272.822 601.452L272.728 601.943C273.381 602.067 274.032 602.194 274.682 602.323L274.78 601.833C276.408 602.157 278.031 602.496 279.646 602.851L279.538 603.339C280.183 603.481 280.827 603.625 281.47 603.772L281.581 603.284C283.205 603.655 284.822 604.041 286.432 604.443L286.311 604.928C286.954 605.088 287.595 605.251 288.236 605.416L288.361 604.932C289.967 605.347 291.566 605.777 293.158 606.223L293.023 606.704C293.663 606.883 294.302 607.065 294.939 607.249L295.078 606.768C296.675 607.229 298.264 607.706 299.845 608.197L299.696 608.675C300.327 608.871 300.957 609.07 301.586 609.271L301.738 608.795C303.323 609.302 304.899 609.824 306.467 610.361L306.305 610.834C306.932 611.049 307.558 611.267 308.182 611.486L308.348 611.015C309.912 611.565 311.467 612.131 313.014 612.711L312.838 613.179C313.461 613.413 314.081 613.649 314.701 613.887L314.88 613.421C316.432 614.018 317.975 614.63 319.508 615.257L319.319 615.72C319.931 615.971 320.542 616.223 321.151 616.478L321.344 616.017C322.878 616.659 324.402 617.316 325.916 617.988L325.713 618.445C326.319 618.714 326.924 618.985 327.527 619.259L327.733 618.803C329.244 619.489 330.745 620.189 332.235 620.903L332.019 621.354C332.617 621.641 333.214 621.93 333.809 622.221L334.029 621.772C335.522 622.504 337.006 623.25 338.478 624.011L338.249 624.455C338.836 624.758 339.423 625.064 340.007 625.372L340.24 624.93C341.71 625.705 343.169 626.495 344.617 627.298L344.375 627.736C344.954 628.057 345.533 628.381 346.109 628.708L346.355 628.273C347.799 629.09 349.231 629.922 350.652 630.768L350.397 631.198C350.966 631.537 351.534 631.878 352.1 632.221L352.359 631.794C353.781 632.657 355.191 633.534 356.589 634.425L356.32 634.846C356.878 635.202 357.434 635.56 357.988 635.92L358.26 635.5C359.654 636.405 361.035 637.324 362.404 638.257L362.122 638.67C362.67 639.044 363.216 639.419 363.76 639.797L364.045 639.386C365.408 640.332 366.758 641.292 368.095 642.266L367.801 642.67C368.337 643.06 368.871 643.452 369.403 643.847L369.701 643.445C371.036 644.435 372.358 645.439 373.667 646.456L373.36 646.851C373.883 647.257 374.403 647.665 374.921 648.075L375.231 647.683C376.534 648.714 377.823 649.758 379.099 650.816L378.779 651.201C379.29 651.624 379.798 652.049 380.303 652.476L380.626 652.094C381.893 653.164 383.146 654.248 384.385 655.344L384.054 655.718C384.551 656.158 385.045 656.599 385.537 657.043L385.872 656.671C387.107 657.784 388.326 658.909 389.531 660.047L389.188 660.411C389.669 660.865 390.147 661.321 390.624 661.779L390.97 661.418C392.168 662.57 393.35 663.735 394.517 664.912L394.162 665.264C394.628 665.734 395.092 666.206 395.554 666.681L395.912 666.332C397.069 667.521 398.21 668.722 399.336 669.935L398.969 670.275C399.42 670.761 399.869 671.249 400.315 671.739L400.685 671.403C401.803 672.631 402.905 673.871 403.99 675.123L403.613 675.451C404.046 675.95 404.476 676.452 404.904 676.955L405.285 676.631C406.361 677.897 407.421 679.174 408.464 680.463L408.075 680.778C408.492 681.292 408.905 681.809 409.317 682.327L409.708 682.017C410.739 683.317 411.753 684.628 412.75 685.951L412.35 686.252C412.749 686.781 413.145 687.312 413.539 687.845L413.941 687.548C414.927 688.884 415.895 690.23 416.845 691.588L416.435 691.874C416.814 692.416 417.191 692.959 417.564 693.504L417.977 693.222C418.916 694.592 419.836 695.973 420.739 697.364L420.319 697.637C420.68 698.192 421.037 698.749 421.391 699.307L421.813 699.039C422.702 700.441 423.572 701.852 424.423 703.274L423.994 703.531C424.334 704.099 424.672 704.669 425.006 705.24L425.437 704.988C426.275 706.42 427.093 707.862 427.893 709.314L427.455 709.556C427.774 710.135 428.09 710.716 428.403 711.299L428.843 711.063C429.628 712.525 430.394 713.997 431.14 715.478L430.693 715.703C430.991 716.294 431.285 716.886 431.576 717.48L432.025 717.26C432.755 718.749 433.466 720.248 434.156 721.756L433.701 721.964C433.977 722.566 434.249 723.169 434.518 723.773L434.975 723.57C435.649 725.085 436.303 726.61 436.936 728.143L436.474 728.334C436.727 728.945 436.976 729.558 437.222 730.172L437.686 729.986C438.303 731.525 438.899 733.073 439.474 734.629L439.005 734.803C439.234 735.423 439.46 736.046 439.683 736.669L440.153 736.501C440.711 738.062 441.247 739.63 441.762 741.207L441.287 741.363C441.492 741.991 441.694 742.621 441.893 743.253L442.37 743.103C442.867 744.684 443.343 746.274 443.798 747.871L443.317 748.008C443.498 748.643 443.675 749.28 443.849 749.918L444.331 749.786C444.767 751.385 445.182 752.991 445.574 754.605L445.088 754.723C445.245 755.367 445.398 756.012 445.547 756.658L446.034 756.545C446.407 758.157 446.758 759.775 447.087 761.401L446.597 761.5C446.729 762.149 446.856 762.798 446.98 763.449L447.472 763.355C447.782 764.982 448.071 766.616 448.337 768.257L447.843 768.337C447.949 768.988 448.051 769.641 448.149 770.294L448.644 770.22C448.891 771.858 449.115 773.503 449.317 775.154L448.821 775.215C448.902 775.872 448.978 776.53 449.052 777.188L449.548 777.133C449.731 778.775 449.891 780.423 450.028 782.077L449.53 782.118C449.585 782.778 449.636 783.438 449.684 784.1L450.182 784.064C450.301 785.714 450.397 787.37 450.471 789.031L449.971 789.053C450 789.712 450.026 790.372 450.048 791.033L450.547 791.016Z" stroke="#F1F1FF" stroke-dasharray="2 5"/>
<path d="M390.002 797C390.002 877.557 316.388 943.059 225.323 943.059C134.258 943.059 60.6443 877.557 60.6443 797C60.6443 716.443 134.258 650.941 225.323 650.941C316.388 650.941 390.002 716.443 390.002 797Z" stroke="#F1F1FF" stroke-width="2"/>
<defs>
<linearGradient id="paint0_linear_737_555" x1="-575.137" y1="-118.5" x2="986.052" y2="1207.87" gradientUnits="userSpaceOnUse">
<stop stop-color="#495FEC"/>
<stop offset="1" stop-color="#7552D0"/>
</linearGradient>
</defs>
</svg>
