<svg width="272" height="214" viewBox="0 0 272 214" fill="none" xmlns="http://www.w3.org/2000/svg">
<path d="M270.112 134.785L136 57.7411L1.88768 134.785L0 133.697V135.868L136 214L272 135.868V133.697L270.112 134.785Z" fill="#DADCE5"/>
<path d="M136 211.829L0 133.697L136 55.5651L272 133.697L136 211.829Z" fill="#F2F5F9"/>
<path d="M171.958 178.907L135.695 199.883L45.6253 147.479L81.8829 126.498L171.958 178.907Z" fill="#B9CC00"/>
<path d="M157.134 81.3151L43.6832 146.488L36.0345 142.098L149.486 76.9197L157.134 81.3151Z" fill="#3A3A3A"/>
<path d="M40.7946 144.047L40.0275 144.491L39.5162 144.193L40.2832 143.755L40.7946 144.047Z" fill="white"/>
<path d="M151.265 80.5843L149.731 81.4666L149.219 81.1743L150.753 80.292L151.265 80.5843ZM148.197 82.349L146.662 83.2313L146.151 82.9336L147.685 82.0566L148.197 82.349ZM145.128 84.1136L143.616 84.9851L143.105 84.6928L144.639 83.8105L145.128 84.1136ZM142.06 85.8729L140.526 86.7552L140.015 86.4629L141.549 85.5806L142.06 85.8729ZM138.992 87.6375L137.458 88.5198L136.947 88.2221L138.481 87.3452L138.992 87.6375ZM135.924 89.4022L134.368 90.2791L133.851 89.9868L135.385 89.1045L135.924 89.4022ZM132.85 91.1614L131.316 92.0221L130.805 91.7298L132.339 90.8475L132.85 91.1614ZM129.782 92.9261L128.248 93.8084L127.737 93.5107L129.271 92.6338L129.782 92.9261ZM126.714 94.6907L125.18 95.5677L124.669 95.2754L126.203 94.393L126.714 94.6907ZM123.646 96.45L122.112 97.3323L121.6 97.04L123.134 96.1577L123.646 96.45ZM120.578 98.2147L119.044 99.097L118.532 98.7993L120.066 97.9223L120.578 98.2147ZM117.504 99.9793L115.97 100.856L115.459 100.564L116.993 99.6816L117.504 99.9793ZM114.441 101.766L112.907 102.648L112.396 102.356L113.93 101.473L114.441 101.766ZM111.373 103.53L109.839 104.413L109.328 104.115L110.862 103.238L111.373 103.53ZM108.305 105.295L106.771 106.172L106.26 105.88L107.794 104.997L108.305 105.295ZM105.237 107.054L103.703 107.937L103.191 107.644L104.725 106.762L105.237 107.054ZM102.169 108.803L100.64 109.674L100.129 109.376L101.663 108.499L102.169 108.803ZM99.1005 110.567L97.5664 111.444L97.0551 111.152L98.5891 110.27L99.1005 110.567ZM96.0323 112.327L94.4983 113.209L93.9543 112.917L95.4938 112.034L96.0323 112.327ZM92.9642 114.091L91.4301 114.973L90.9133 114.676L92.4528 113.799L92.9642 114.091ZM89.8906 115.84L88.3565 116.717L87.8451 116.424L89.3792 115.542L89.8906 115.84ZM86.8224 117.599L85.2883 118.481L84.777 118.189L86.3111 117.307L86.8224 117.599ZM83.776 119.369L82.2419 120.251L81.7306 119.954L83.232 119.087L83.776 119.369ZM80.7079 121.134L79.1738 122.01L78.6624 121.718L80.1965 120.836L80.7079 121.134ZM77.6179 122.877L76.0839 123.759L75.5725 123.467L77.1066 122.584L77.6179 122.877ZM74.528 124.657L72.9939 125.54L72.4826 125.242L74.0167 124.365L74.528 124.657ZM71.4599 126.422L69.9258 127.299L69.4144 127.007L70.9485 126.124L71.4599 126.422ZM68.3917 128.181L66.8576 129.064L66.3463 128.771L67.8803 127.889L68.3917 128.181ZM65.3235 129.946L63.7895 130.828L63.2781 130.531L64.8122 129.654L65.3235 129.946ZM62.2554 131.711L60.7213 132.588L60.2099 132.295L61.744 131.413L62.2554 131.711ZM59.1872 133.47L57.664 134.352L57.1527 134.06L58.6976 133.161L59.1872 133.47ZM56.1191 135.235L54.585 136.117L54.0736 135.819L55.6077 134.942L56.1191 135.235ZM53.0509 136.999L51.5168 137.876L51.0055 137.584L52.5395 136.702L53.0509 136.999ZM49.9827 138.759L48.4704 139.657L47.9536 139.365L49.504 138.466L49.9827 138.759ZM46.9146 140.523L45.3805 141.406L44.8637 141.108L46.3978 140.231L46.9146 140.523ZM43.841 142.288L42.3069 143.165L41.7955 142.872L43.3296 141.99L43.841 142.288Z" fill="white"/>
<path d="M153.566 79.2635L152.799 79.7074L152.287 79.4096L153.054 78.9712L153.566 79.2635Z" fill="white"/>
<path d="M132.361 172.29C134.87 166.611 124.944 156.776 110.191 150.323C95.4374 143.869 81.4438 143.242 78.935 148.92C76.4262 154.599 86.3522 164.434 101.105 170.888C115.859 177.341 129.852 177.969 132.361 172.29Z" fill="#00E7FF"/>
<path d="M133.666 83.3503L71.1226 119.623L53.9974 110.291L116.541 74.0182L133.666 83.3503Z" fill="#B9CC00"/>
<path d="M224.83 148.67L171.344 179.454L130.283 156.253L183.769 125.464L224.83 148.67Z" fill="#B9CC00"/>
<path d="M71.6775 105.262H69.9747V111.217C69.9818 111.291 70.0087 111.363 70.0526 111.424C70.0966 111.485 70.1561 111.533 70.225 111.563C70.4115 111.657 70.6173 111.705 70.8261 111.705C71.0349 111.705 71.2407 111.657 71.4272 111.563C71.4954 111.532 71.5543 111.484 71.5982 111.423C71.642 111.362 71.6693 111.291 71.6775 111.217V105.262Z" fill="#443D31"/>
<path d="M70.8669 105.349C73.3305 105.349 75.3277 103.362 75.3277 100.91C75.3277 98.4588 73.3305 96.4716 70.8669 96.4716C68.4032 96.4716 66.4061 98.4588 66.4061 100.91C66.4061 103.362 68.4032 105.349 70.8669 105.349Z" fill="#C6E800"/>
<path d="M82.1059 99.3026H80.4032V105.257C80.4108 105.331 80.4379 105.403 80.4818 105.463C80.5257 105.524 80.5849 105.573 80.6534 105.603C80.8399 105.697 81.0458 105.745 81.2546 105.745C81.4633 105.745 81.6692 105.697 81.8557 105.603C81.9249 105.573 81.9847 105.525 82.0287 105.464C82.0728 105.403 82.0994 105.332 82.1059 105.257V99.3026Z" fill="#443D31"/>
<path d="M81.2954 99.3946C83.759 99.3946 85.7562 97.4074 85.7562 94.9559C85.7562 92.5045 83.759 90.5172 81.2954 90.5172C78.8318 90.5172 76.8346 92.5045 76.8346 94.9559C76.8346 97.4074 78.8318 99.3946 81.2954 99.3946Z" fill="#C6E800"/>
<path d="M103.817 87.9623H102.114V93.9166C102.12 93.9918 102.146 94.064 102.19 94.1252C102.234 94.1864 102.295 94.2341 102.364 94.2631C102.55 94.3589 102.756 94.409 102.966 94.409C103.175 94.409 103.381 94.3589 103.567 94.2631C103.636 94.2331 103.696 94.1851 103.74 94.1241C103.784 94.0632 103.81 93.9915 103.817 93.9166V87.9623Z" fill="#443D31"/>
<path d="M103.006 88.0543C105.47 88.0543 107.467 86.067 107.467 83.6156C107.467 81.1642 105.47 79.1769 103.006 79.1769C100.543 79.1769 98.5456 81.1642 98.5456 83.6156C98.5456 86.067 100.543 88.0543 103.006 88.0543Z" fill="#C6E800"/>
<path d="M183.769 121.123L168.662 112.44V76.3458L183.769 85.023V121.123Z" fill="#E4E7EF"/>
<path d="M183.769 85.023L168.662 76.3458L183.769 67.6687L198.87 76.3458L183.769 85.023Z" fill="#EDF1F9"/>
<path d="M181.049 92.4822L171.382 86.9284V82.0729L181.049 87.6267V92.4822Z" fill="#6675FF"/>
<path d="M198.87 112.446L183.769 121.123V85.023L198.87 76.3458V112.446Z" fill="#DADCE5"/>
<path d="M190.112 90.4035L186.489 92.4875V87.6266L190.112 85.5426V90.4035Z" fill="#6675FF"/>
<path d="M196.156 86.9338L192.527 89.0178V84.1569L196.156 82.0729V86.9338Z" fill="#6675FF"/>
<path d="M190.112 97.6949L186.489 99.7735V94.918L190.112 92.834V97.6949Z" fill="#6675FF"/>
<path d="M196.156 94.2198L192.527 96.3038V91.4483L196.156 89.3643V94.2198Z" fill="#6675FF"/>
<path d="M190.112 104.981L186.489 107.065V102.204L190.112 100.125V104.981Z" fill="#6675FF"/>
<path d="M196.156 101.511L192.527 103.595V98.7343L196.156 96.6503V101.511Z" fill="#6675FF"/>
<path d="M190.112 112.619L186.489 114.703V109.842L190.112 107.758V112.619Z" fill="#6675FF"/>
<path d="M196.156 109.149L192.527 111.233V106.372L196.156 104.288V109.149Z" fill="#6675FF"/>
<path d="M181.049 99.7736L171.382 94.2198V89.3589L181.049 94.9127V99.7736Z" fill="#6675FF"/>
<path d="M181.049 107.065L171.382 101.511V96.6503L181.049 102.204V107.065Z" fill="#6675FF"/>
<path d="M181.049 114.697L171.382 109.144V104.288L181.049 109.842V114.697Z" fill="#6675FF"/>
<path d="M183.769 81.2067L175.054 76.1996V74.6515L183.769 79.6586V81.2067Z" fill="#E4E7EF"/>
<path d="M183.769 81.2067L192.484 76.1996V74.6515L183.769 79.6586V81.2067Z" fill="#DADCE5"/>
<path d="M52.9747 130.065L37.8679 121.388V64.4587L52.9747 73.1359V130.065Z" fill="#E4E7EF"/>
<path d="M52.9747 73.1359L37.8679 64.4588L52.9747 55.7816L68.0762 64.4588L52.9747 73.1359Z" fill="#EDF1F9"/>
<path d="M50.2547 80.6005L40.5878 75.0467V70.1858L50.2547 75.7396V80.6005Z" fill="#84A6F4"/>
<path d="M68.0762 121.388L52.9747 130.065V73.1414L68.0762 64.4642V121.388Z" fill="#DADCE5"/>
<path d="M59.3177 78.5219L55.6947 80.606V75.745L59.3177 73.661V78.5219Z" fill="#84A6F4"/>
<path d="M65.3616 75.0521L61.7332 77.1307V72.2698L65.3616 70.1912V75.0521Z" fill="#84A6F4"/>
<path d="M59.3177 85.8079L55.6947 87.8919V83.031L59.3177 80.9524V85.8079Z" fill="#84A6F4"/>
<path d="M65.3616 82.3381L61.7332 84.4221V79.5612L65.3616 77.4772V82.3381Z" fill="#84A6F4"/>
<path d="M59.3177 93.0992L55.6947 95.1833V90.3223L59.3177 88.2383V93.0992Z" fill="#84A6F4"/>
<path d="M65.3616 89.6295L61.7332 91.7081V86.8526L65.3616 84.7686V89.6295Z" fill="#84A6F4"/>
<path d="M59.3177 100.737L55.6947 102.816V97.9603L59.3177 95.8762V100.737Z" fill="#84A6F4"/>
<path d="M65.3616 97.2619L61.7332 99.3459V94.485L65.3616 92.4064V97.2619Z" fill="#84A6F4"/>
<path d="M59.3177 108.889L55.6947 110.973V106.112L59.3177 104.028V108.889Z" fill="#84A6F4"/>
<path d="M65.3616 105.419L61.7332 107.498V102.642L65.3616 100.558V105.419Z" fill="#84A6F4"/>
<path d="M59.3177 117.225L55.6947 119.309V114.448L59.3177 112.364V117.225Z" fill="#84A6F4"/>
<path d="M65.3616 113.756L61.7332 115.834V110.979L65.3616 108.895V113.756Z" fill="#84A6F4"/>
<path d="M50.2547 87.8919L40.5878 82.3381V77.4772L50.2547 83.031V87.8919Z" fill="#84A6F4"/>
<path d="M50.2547 95.1779L40.5878 89.6241V84.7632L50.2547 90.317V95.1779Z" fill="#84A6F4"/>
<path d="M50.2547 102.816L40.5878 97.2619V92.401L50.2547 97.9548V102.816Z" fill="#84A6F4"/>
<path d="M50.2547 110.973L40.5878 105.419V100.558L50.2547 106.112V110.973Z" fill="#84A6F4"/>
<path d="M50.2547 119.309L40.5878 113.756V108.895L50.2547 114.448V119.309Z" fill="#84A6F4"/>
<path d="M52.9747 69.3251L44.2598 64.318V62.7699L52.9747 67.777V69.3251Z" fill="#E4E7EF"/>
<path d="M52.9747 69.3251L61.6896 64.318V62.7699L52.9747 67.777V69.3251Z" fill="#DADCE5"/>
<path d="M52.9747 130.065L37.8679 121.388V64.4587L52.9747 73.1359V130.065Z" fill="#E4E7EF"/>
<path d="M52.9747 73.1359L37.8679 64.4588L52.9747 55.7816L68.0816 64.4588L52.9747 73.1359Z" fill="#EDF1F9"/>
<path d="M50.2547 80.6005L40.5878 75.0467V70.1858L50.2547 75.7396V80.6005Z" fill="#6675FF"/>
<path d="M68.0816 121.388L52.9747 130.065V73.1414L68.0816 64.4642V121.388Z" fill="#DADCE5"/>
<path d="M59.3177 78.5219L55.6947 80.606V75.745L59.3177 73.661V78.5219Z" fill="#6675FF"/>
<path d="M65.3616 75.0521L61.7332 77.1307V72.2698L65.3616 70.1912V75.0521Z" fill="#6675FF"/>
<path d="M59.3177 85.8079L55.6947 87.8919V83.031L59.3177 80.9524V85.8079Z" fill="#6675FF"/>
<path d="M65.3616 82.3381L61.7332 84.4221V79.5612L65.3616 77.4772V82.3381Z" fill="#6675FF"/>
<path d="M59.3177 93.0992L55.6947 95.1833V90.3223L59.3177 88.2383V93.0992Z" fill="#6675FF"/>
<path d="M65.3616 89.6295L61.7332 91.7081V86.8526L65.3616 84.7686V89.6295Z" fill="#6675FF"/>
<path d="M59.3177 100.737L55.6947 102.816V97.9603L59.3177 95.8762V100.737Z" fill="#6675FF"/>
<path d="M65.3616 97.2619L61.7332 99.3459V94.485L65.3616 92.4064V97.2619Z" fill="#6675FF"/>
<path d="M59.3177 108.889L55.6947 110.973V106.112L59.3177 104.028V108.889Z" fill="#6675FF"/>
<path d="M65.3616 105.419L61.7332 107.498V102.642L65.3616 100.558V105.419Z" fill="#6675FF"/>
<path d="M59.3177 117.225L55.6947 119.309V114.448L59.3177 112.364V117.225Z" fill="#6675FF"/>
<path d="M65.3616 113.756L61.7332 115.834V110.979L65.3616 108.895V113.756Z" fill="#6675FF"/>
<path d="M50.2547 87.8919L40.5878 82.3381V77.4772L50.2547 83.031V87.8919Z" fill="#6675FF"/>
<path d="M50.2547 95.1779L40.5878 89.6241V84.7632L50.2547 90.317V95.1779Z" fill="#6675FF"/>
<path d="M50.2547 102.816L40.5878 97.2619V92.401L50.2547 97.9548V102.816Z" fill="#6675FF"/>
<path d="M50.2547 110.973L40.5878 105.419V100.558L50.2547 106.112V110.973Z" fill="#6675FF"/>
<path d="M50.2547 119.309L40.5878 113.756V108.895L50.2547 114.448V119.309Z" fill="#6675FF"/>
<path d="M52.9747 69.3251L44.2598 64.318V62.7699L52.9747 67.777V69.3251Z" fill="#E4E7EF"/>
<path d="M52.9747 69.3251L61.6951 64.318V62.7699L52.9747 67.777V69.3251Z" fill="#DADCE5"/>
<path d="M120.899 121.659L105.797 112.981V56.0576L120.899 64.7348V121.659Z" fill="#E4E7EF"/>
<path d="M120.899 64.7348L105.792 56.0576L120.899 47.3805L136.005 56.0576L120.899 64.7348Z" fill="#EDF1F9"/>
<path d="M118.184 72.194L108.512 66.6402V61.7847L118.184 67.3385V72.194Z" fill="#6675FF"/>
<path d="M136.005 112.981L120.899 121.659V64.7348L136.005 56.0576V112.981Z" fill="#DADCE5"/>
<path d="M127.242 70.1154L123.619 72.1995V67.3385L127.242 65.2545V70.1154Z" fill="#6675FF"/>
<path d="M133.285 66.6456L129.662 68.7296V63.8687L133.285 61.7847V66.6456Z" fill="#6675FF"/>
<path d="M127.242 77.4068L123.619 79.4854V74.6299L127.242 72.5459V77.4068Z" fill="#6675FF"/>
<path d="M133.285 73.9316L129.662 76.0156V71.1547L133.285 69.076V73.9316Z" fill="#6675FF"/>
<path d="M127.242 84.6928L123.619 86.7768V81.9159L127.242 79.8373V84.6928Z" fill="#6675FF"/>
<path d="M133.285 81.223L129.662 83.307V78.4461L133.285 76.3621V81.223Z" fill="#6675FF"/>
<path d="M127.242 92.3307L123.619 94.4147V89.5538L127.242 87.4697V92.3307Z" fill="#6675FF"/>
<path d="M133.285 88.8608L129.662 90.9394V86.0839L133.285 83.9999V88.8608Z" fill="#6675FF"/>
<path d="M127.242 100.483L123.619 102.567V97.7058L127.242 95.6272V100.483Z" fill="#6675FF"/>
<path d="M133.285 97.0129L129.662 99.0969V94.236L133.285 92.152V97.0129Z" fill="#6675FF"/>
<path d="M127.242 108.819L123.619 110.903V106.042L127.242 103.963V108.819Z" fill="#6675FF"/>
<path d="M133.285 105.349L129.662 107.433V102.572L133.285 100.488V105.349Z" fill="#6675FF"/>
<path d="M118.184 79.4854L108.512 73.9316V69.0707L118.184 74.6245V79.4854Z" fill="#6675FF"/>
<path d="M118.184 86.7768L108.512 81.2176V76.3621L118.184 81.9159V86.7768Z" fill="#6675FF"/>
<path d="M118.184 94.4092L108.512 88.8554V83.9999L118.184 89.5483V94.4092Z" fill="#6675FF"/>
<path d="M118.184 102.567L108.512 97.0129V92.152L118.184 97.7058V102.567Z" fill="#6675FF"/>
<path d="M118.184 110.903L108.512 105.349V100.488L118.184 106.042V110.903Z" fill="#6675FF"/>
<path d="M120.899 60.9186L112.184 55.9115V54.3634L120.899 59.3705V60.9186Z" fill="#E4E7EF"/>
<path d="M120.899 60.9186L129.619 55.9115V54.3634L120.899 59.3705V60.9186Z" fill="#DADCE5"/>
<path d="M33.3363 141.173L18.2349 132.495V96.3958L33.3363 105.073V141.173Z" fill="#E4E7EF"/>
<path d="M33.3363 105.073L18.2349 96.3958L33.3363 87.7186L48.4432 96.3958L33.3363 105.073Z" fill="#EDF1F9"/>
<path d="M30.6218 112.538L20.9549 106.984V102.123L30.6218 107.677V112.538Z" fill="#6675FF"/>
<path d="M48.4432 132.495L33.3363 141.173V105.078L48.4432 96.3958V132.495Z" fill="#DADCE5"/>
<path d="M39.6794 110.454L36.0563 112.538V107.677L39.6794 105.598V110.454Z" fill="#6675FF"/>
<path d="M45.7232 106.984L42.1002 109.068V104.207L45.7232 102.123V106.984Z" fill="#6675FF"/>
<path d="M39.6794 117.745L36.0563 119.829V114.968L39.6794 112.884V117.745Z" fill="#6675FF"/>
<path d="M45.7232 114.275L42.1002 116.354V111.498L45.7232 109.414V114.275Z" fill="#6675FF"/>
<path d="M39.6794 125.036L36.0563 127.115V122.259L39.6794 120.175V125.036Z" fill="#6675FF"/>
<path d="M45.7232 121.561L42.1002 123.645V118.784L45.7232 116.706V121.561Z" fill="#6675FF"/>
<path d="M39.6794 132.669L36.0563 134.753V129.892L39.6794 127.813V132.669Z" fill="#6675FF"/>
<path d="M45.7232 129.199L42.1002 131.283V126.422L45.7232 124.338V129.199Z" fill="#6675FF"/>
<path d="M30.6218 119.824L20.9549 114.27V109.414L30.6218 114.963V119.824Z" fill="#6675FF"/>
<path d="M30.6218 127.115L20.9549 121.561V116.7L30.6218 122.254V127.115Z" fill="#6675FF"/>
<path d="M30.6218 134.753L20.9549 129.199V124.338L30.6218 129.892V134.753Z" fill="#6675FF"/>
<path d="M33.3363 101.257L24.6215 96.2497V94.7015L33.3363 99.7086V101.257Z" fill="#E4E7EF"/>
<path d="M33.3363 101.257L42.0566 96.2497V94.7015L33.3363 99.7086V101.257Z" fill="#DADCE5"/>
<path d="M99.3017 133.605L84.2003 124.928V88.8337L99.3017 97.5109V133.605Z" fill="#E4E7EF"/>
<path d="M99.3018 97.5109L84.2003 88.8284L99.3018 80.1512L114.409 88.8338L99.3018 97.5109Z" fill="#EDF1F9"/>
<path d="M96.5818 104.97L86.9149 99.4163V94.5608L96.5818 100.115V104.97Z" fill="#6675FF"/>
<path d="M114.409 124.933L99.3018 133.611V97.5109L114.409 88.8337V124.933Z" fill="#DADCE5"/>
<path d="M105.645 102.891L102.022 104.975V100.115L105.645 98.0305V102.891Z" fill="#6675FF"/>
<path d="M111.689 99.4217L108.066 101.506V96.6448L111.689 94.5608V99.4217Z" fill="#6675FF"/>
<path d="M105.645 110.183L102.022 112.262V107.406L105.645 105.322V110.183Z" fill="#6675FF"/>
<path d="M111.689 106.708L108.066 108.792V103.931L111.689 101.852V106.708Z" fill="#6675FF"/>
<path d="M105.645 117.469L102.022 119.553V114.692L105.645 112.608V117.469Z" fill="#6675FF"/>
<path d="M111.689 113.999L108.066 116.083V111.222L111.689 109.138V113.999Z" fill="#6675FF"/>
<path d="M105.645 125.107L102.022 127.191V122.33L105.645 120.246V125.107Z" fill="#6675FF"/>
<path d="M111.689 121.637L108.066 123.716V118.86L111.689 116.776V121.637Z" fill="#6675FF"/>
<path d="M96.5818 112.262L86.9149 106.708V101.847L96.5818 107.401V112.262Z" fill="#6675FF"/>
<path d="M96.5818 119.548L86.9149 113.994V109.138L96.5818 114.692V119.548Z" fill="#6675FF"/>
<path d="M96.5818 127.185L86.9149 121.632V116.771L96.5818 122.324V127.185Z" fill="#6675FF"/>
<path d="M99.3017 93.6947L90.5869 88.6877V87.1395L99.3017 92.1466V93.6947Z" fill="#E4E7EF"/>
<path d="M99.3018 93.6947L108.022 88.6877V87.1395L99.3018 92.1466V93.6947Z" fill="#DADCE5"/>
<path d="M153.898 137.865L130.277 124.3V13.5706L153.898 27.1411V137.865Z" fill="#E4E7EF"/>
<path d="M151.08 32.6245L133.057 22.2748V17.6628L151.08 28.0126V32.6245Z" fill="#6675FF"/>
<path d="M151.08 37.9131L133.057 27.5579V22.946L151.08 33.3012V37.9131Z" fill="#6675FF"/>
<path d="M151.08 43.2017L133.057 32.8465V28.2346L151.08 38.5843V43.2017Z" fill="#6675FF"/>
<path d="M151.08 48.4848L133.057 38.135V33.5231L151.08 43.8728V48.4848Z" fill="#6675FF"/>
<path d="M151.08 53.7733L133.057 43.4236V38.8062L151.08 49.1614V53.7733Z" fill="#6675FF"/>
<path d="M151.08 59.0619L133.057 48.7067V44.0948L151.08 54.45V59.0619Z" fill="#6675FF"/>
<path d="M151.08 64.3505L133.057 53.9953V49.3834L151.08 59.7331V64.3505Z" fill="#6675FF"/>
<path d="M151.08 69.6336L133.057 59.2838V54.6719L151.08 65.0217V69.6336Z" fill="#6675FF"/>
<path d="M151.08 74.9222L133.057 64.5724V59.9551L151.08 70.3103V74.9222Z" fill="#6675FF"/>
<path d="M151.08 80.2108L133.057 69.8556V65.2437L151.08 75.5988V80.2108Z" fill="#6675FF"/>
<path d="M151.08 85.4939L133.057 75.1442V70.5322L151.08 80.882V85.4939Z" fill="#6675FF"/>
<path d="M151.08 90.7824L133.057 80.4326V75.8153L151.08 86.1705V90.7824Z" fill="#6675FF"/>
<path d="M151.08 96.071L133.057 85.7158V81.1039L151.08 91.4591V96.071Z" fill="#6675FF"/>
<path d="M151.08 101.36L133.057 91.0044V86.3925L151.08 96.7422V101.36Z" fill="#6675FF"/>
<path d="M151.08 106.643L133.057 96.293V91.681L151.08 102.031V106.643Z" fill="#6675FF"/>
<path d="M151.08 111.931L133.057 101.581V96.9641L151.08 107.319V111.931Z" fill="#6675FF"/>
<path d="M151.08 117.22L133.057 106.865V102.253L151.08 112.608V117.22Z" fill="#6675FF"/>
<path d="M137.496 109.414L137.18 109.236V20.0283L137.496 20.2124V109.414Z" fill="#DADCE5"/>
<path d="M142.022 112.018L141.712 111.834V22.632L142.022 22.8106V112.018Z" fill="#DADCE5"/>
<path d="M146.554 114.616L146.238 114.438V25.2303L146.554 25.4143V114.616Z" fill="#DADCE5"/>
<path d="M153.898 27.1411L130.283 13.5705L153.898 0L177.518 13.5705L153.898 27.1411Z" fill="#EDF1F9"/>
<path d="M177.518 124.3L153.898 137.865V27.1411L177.518 13.5706V124.3Z" fill="#DADCE5"/>
<path d="M174.7 22.2964L156.677 32.6516V28.0342L174.7 17.6844V22.2964Z" fill="#6675FF"/>
<path d="M174.7 27.585L156.677 37.9347V33.3228L174.7 22.973V27.585Z" fill="#6675FF"/>
<path d="M174.7 32.8735L156.677 43.2233V38.6114L174.7 28.2562V32.8735Z" fill="#6675FF"/>
<path d="M174.7 38.1567L156.677 48.5119V43.8945L174.7 33.5447V38.1567Z" fill="#6675FF"/>
<path d="M174.7 43.4452L156.677 53.795V49.1831L174.7 38.8333V43.4452Z" fill="#6675FF"/>
<path d="M174.7 48.7338L156.677 59.0836V54.4716L174.7 44.1165V48.7338Z" fill="#6675FF"/>
<path d="M174.7 54.017L156.677 64.3721V59.7602L174.7 49.405V54.017Z" fill="#6675FF"/>
<path d="M174.7 59.3055L156.677 69.6607V65.0434L174.7 54.6936V59.3055Z" fill="#6675FF"/>
<path d="M174.7 64.5941L156.677 74.9439V70.3319L174.7 59.9822V64.5941Z" fill="#6675FF"/>
<path d="M174.7 69.8826L156.677 80.2324V75.6205L174.7 65.2653V69.8826Z" fill="#6675FF"/>
<path d="M174.7 75.1658L156.677 85.521V80.909L174.7 70.5538V75.1658Z" fill="#6675FF"/>
<path d="M174.7 80.4543L156.677 90.8041V86.1922L174.7 75.8424V80.4543Z" fill="#6675FF"/>
<path d="M174.7 85.7429L156.677 96.0927V91.4808L174.7 81.131V85.7429Z" fill="#6675FF"/>
<path d="M174.7 91.026L156.677 101.381V96.7693L174.7 86.4141V91.026Z" fill="#6675FF"/>
<path d="M174.7 96.3146L156.677 106.67V102.052L174.7 91.7026V96.3146Z" fill="#6675FF"/>
<path d="M174.7 101.603L156.677 111.953V107.341L174.7 96.9912V101.603Z" fill="#6675FF"/>
<path d="M174.7 106.892L156.677 117.242V112.63L174.7 102.274V106.892Z" fill="#6675FF"/>
<path d="M161.117 114.692L160.806 114.876V25.6687L161.117 25.4847V114.692Z" fill="#DADCE5"/>
<path d="M165.648 112.094L165.332 112.272V23.065L165.648 22.8864V112.094Z" fill="#DADCE5"/>
<path d="M170.174 109.49L169.859 109.674V20.4668L170.174 20.2828V109.49Z" fill="#DADCE5"/>
<path d="M115.703 143.002L105.982 137.416V125.339L115.703 130.926V143.002Z" fill="#E4E7EF"/>
<path d="M115.698 130.937L105.977 125.35L114.572 120.208L124.288 125.794L115.698 130.937Z" fill="#EDF1F9"/>
<path d="M130.81 151.674L115.703 142.997V106.903L130.81 115.58V151.674Z" fill="#E4E7EF"/>
<path d="M130.805 115.58L115.703 106.903L130.805 98.2255L145.912 106.903L130.805 115.58Z" fill="#EDF1F9"/>
<path d="M128.09 123.039L118.423 117.485V112.63L128.09 118.183V123.039Z" fill="#6675FF"/>
<path d="M145.912 143.002L130.805 151.679V115.58L145.912 106.903V143.002Z" fill="#DADCE5"/>
<path d="M137.153 120.96L133.525 123.044V118.183L137.153 116.099V120.96Z" fill="#6675FF"/>
<path d="M143.192 117.49L139.569 119.574V114.714L143.192 112.63V117.49Z" fill="#6675FF"/>
<path d="M137.153 128.252L133.525 130.33V125.475L137.153 123.391V128.252Z" fill="#6675FF"/>
<path d="M143.192 124.777L139.569 126.861V122L143.192 119.921V124.777Z" fill="#6675FF"/>
<path d="M137.153 135.538L133.525 137.622V132.761L137.153 130.677V135.538Z" fill="#6675FF"/>
<path d="M143.192 132.068L139.569 134.152V129.291L143.192 127.207V132.068Z" fill="#6675FF"/>
<path d="M137.153 143.176L133.525 145.26V140.399L137.153 138.315V143.176Z" fill="#6675FF"/>
<path d="M143.192 139.706L139.569 141.784V136.929L143.192 134.845V139.706Z" fill="#6675FF"/>
<path d="M128.09 130.33L118.423 124.776V119.916L128.09 125.469V130.33Z" fill="#6675FF"/>
<path d="M128.09 137.622L118.423 132.062V127.207L128.09 132.761V137.622Z" fill="#6675FF"/>
<path d="M128.09 145.254L118.423 139.7V134.839L128.09 140.399V145.254Z" fill="#6675FF"/>
<path d="M114.213 137.622L107.581 133.822V128.966L114.213 132.761V137.622Z" fill="#6675FF"/>
<path d="M130.81 111.763L122.09 106.756V105.208L130.81 110.215V111.763Z" fill="#E4E7EF"/>
<path d="M130.81 111.763L139.525 106.756V105.208L130.81 110.215V111.763Z" fill="#DADCE5"/>
<path d="M205.219 133.443L190.112 124.766V67.8419L205.219 76.5191V133.443Z" fill="#E4E7EF"/>
<path d="M205.219 76.5191L190.112 67.8419L205.219 59.1648L220.32 67.8419L205.219 76.5191Z" fill="#EDF1F9"/>
<path d="M202.499 83.9837L192.832 78.4299V73.569L202.499 79.1228V83.9837Z" fill="#6675FF"/>
<path d="M220.32 124.771L205.219 133.448V76.5245L220.32 67.8419V124.771Z" fill="#DADCE5"/>
<path d="M211.562 81.8996L207.933 83.9836V79.1227L211.562 77.0441V81.8996Z" fill="#6675FF"/>
<path d="M217.6 78.4299L213.977 80.5139V75.653L217.6 73.569V78.4299Z" fill="#6675FF"/>
<path d="M211.562 89.191L207.933 91.275V86.4141L211.562 84.3301V89.191Z" fill="#6675FF"/>
<path d="M217.6 85.7213L213.977 87.8053V82.9444L217.6 80.8604V85.7213Z" fill="#6675FF"/>
<path d="M211.562 96.4824L207.933 98.561V93.7055L211.562 91.6215V96.4824Z" fill="#6675FF"/>
<path d="M217.6 93.0072L213.977 95.0913V90.2303L217.6 88.1517V93.0072Z" fill="#6675FF"/>
<path d="M211.562 104.115L207.933 106.199V101.338L211.562 99.2593V104.115Z" fill="#6675FF"/>
<path d="M217.6 100.645L213.977 102.729V97.8682L217.6 95.7842V100.645Z" fill="#6675FF"/>
<path d="M211.562 112.272L207.933 114.351V109.495L211.562 107.411V112.272Z" fill="#6675FF"/>
<path d="M217.6 108.797L213.977 110.881V106.02L217.6 103.942V108.797Z" fill="#6675FF"/>
<path d="M211.562 120.608L207.933 122.687V117.832L211.562 115.748V120.608Z" fill="#6675FF"/>
<path d="M217.6 117.133L213.977 119.217V114.356L217.6 112.278V117.133Z" fill="#6675FF"/>
<path d="M202.499 91.2697L192.832 85.7159V80.8604L202.499 86.4087V91.2697Z" fill="#6675FF"/>
<path d="M202.499 98.5611L192.832 93.0073V88.1464L202.499 93.7002V98.5611Z" fill="#6675FF"/>
<path d="M202.499 106.199L192.832 100.645V95.7842L202.499 101.338V106.199Z" fill="#6675FF"/>
<path d="M202.499 114.351L192.832 108.797V103.942L202.499 109.495V114.351Z" fill="#6675FF"/>
<path d="M202.499 122.687L192.832 117.133V112.278L202.499 117.832V122.687Z" fill="#6675FF"/>
<path d="M205.219 72.7082L196.498 67.6957V66.1476L205.219 71.1547V72.7082Z" fill="#E4E7EF"/>
<path d="M205.219 72.7082L213.933 67.6957V66.1476L205.219 71.1547V72.7082Z" fill="#DADCE5"/>
<path d="M229.084 146.277L213.977 137.6V101.5L229.084 110.178V146.277Z" fill="#E4E7EF"/>
<path d="M229.084 110.178L213.977 101.5L229.084 92.8232L244.185 101.5L229.084 110.178Z" fill="#EDF1F9"/>
<path d="M226.364 117.642L216.697 112.088V107.227L226.364 112.781V117.642Z" fill="#6675FF"/>
<path d="M244.185 137.605L229.084 146.283V110.183L244.185 101.506V137.605Z" fill="#DADCE5"/>
<path d="M235.427 115.563L231.804 117.647V112.787L235.427 110.703V115.563Z" fill="#6675FF"/>
<path d="M241.471 112.094L237.842 114.172V109.317L241.471 107.233V112.094Z" fill="#6675FF"/>
<path d="M235.427 122.849L231.804 124.933V120.073L235.427 117.994V122.849Z" fill="#6675FF"/>
<path d="M241.471 119.38L237.842 121.464V116.603L241.471 114.519V119.38Z" fill="#6675FF"/>
<path d="M235.427 130.141L231.804 132.225V127.364L235.427 125.28V130.141Z" fill="#6675FF"/>
<path d="M241.471 126.671L237.842 128.75V123.894L241.471 121.81V126.671Z" fill="#6675FF"/>
<path d="M235.427 137.779L231.804 139.857V135.002L235.427 132.918V137.779Z" fill="#6675FF"/>
<path d="M241.471 134.304L237.842 136.388V131.527L241.471 129.448V134.304Z" fill="#6675FF"/>
<path d="M226.364 124.933L216.697 119.38V114.519L226.364 120.072V124.933Z" fill="#6675FF"/>
<path d="M226.364 132.219L216.697 126.666V121.81L226.364 127.359V132.219Z" fill="#6675FF"/>
<path d="M226.364 139.857L216.697 134.304V129.443L226.364 134.996V139.857Z" fill="#6675FF"/>
<path d="M229.084 106.367L220.364 101.36V99.8114L229.084 104.818V106.367Z" fill="#E4E7EF"/>
<path d="M229.084 106.367L237.799 101.36V99.8114L229.084 104.818V106.367Z" fill="#DADCE5"/>
<path d="M187.392 127.266H185.689V133.221C185.696 133.295 185.723 133.367 185.767 133.428C185.811 133.489 185.87 133.537 185.939 133.567C186.126 133.661 186.332 133.709 186.54 133.709C186.749 133.709 186.955 133.661 187.141 133.567C187.21 133.537 187.27 133.489 187.314 133.428C187.358 133.367 187.385 133.295 187.392 133.221V127.266Z" fill="#443D31"/>
<path d="M186.581 127.353C189.045 127.353 191.042 125.366 191.042 122.914C191.042 120.463 189.045 118.476 186.581 118.476C184.117 118.476 182.12 120.463 182.12 122.914C182.12 125.366 184.117 127.353 186.581 127.353Z" fill="#C6E800"/>
<path d="M177.067 133.205H175.364V139.159C175.37 139.233 175.397 139.304 175.441 139.364C175.485 139.425 175.545 139.471 175.614 139.5C175.8 139.596 176.006 139.646 176.215 139.646C176.424 139.646 176.631 139.596 176.816 139.5C176.885 139.471 176.945 139.425 176.99 139.364C177.034 139.304 177.06 139.233 177.067 139.159V133.205Z" fill="#443D31"/>
<path d="M176.256 133.297C178.72 133.297 180.717 131.309 180.717 128.858C180.717 126.407 178.72 124.419 176.256 124.419C173.792 124.419 171.795 126.407 171.795 128.858C171.795 131.309 173.792 133.297 176.256 133.297Z" fill="#C6E800"/>
<path d="M166.018 139.489H164.315V145.444C164.322 145.518 164.349 145.59 164.393 145.651C164.437 145.711 164.497 145.76 164.565 145.79C164.752 145.883 164.958 145.932 165.167 145.932C165.375 145.932 165.581 145.883 165.768 145.79C165.837 145.76 165.896 145.711 165.94 145.651C165.984 145.59 166.011 145.518 166.018 145.444V139.489Z" fill="#443D31"/>
<path d="M165.207 139.576C167.671 139.576 169.668 137.588 169.668 135.137C169.668 132.686 167.671 130.698 165.207 130.698C162.744 130.698 160.747 132.686 160.747 135.137C160.747 137.588 162.744 139.576 165.207 139.576Z" fill="#C6E800"/>
<path d="M155.116 146.153H153.408V152.107C153.415 152.182 153.442 152.253 153.486 152.314C153.53 152.375 153.589 152.423 153.658 152.454C153.845 152.547 154.051 152.595 154.259 152.595C154.468 152.595 154.674 152.547 154.861 152.454C154.929 152.423 154.989 152.375 155.033 152.314C155.077 152.253 155.104 152.182 155.111 152.107L155.116 146.153Z" fill="#443D31"/>
<path d="M154.306 146.234C156.769 146.234 158.766 144.247 158.766 141.795C158.766 139.344 156.769 137.356 154.306 137.356C151.842 137.356 149.845 139.344 149.845 141.795C149.845 144.247 151.842 146.234 154.306 146.234Z" fill="#C6E800"/>
<path d="M82.3453 130.623H80.6426V136.577C80.6496 136.652 80.6765 136.723 80.7205 136.784C80.7645 136.845 80.8239 136.893 80.8928 136.923C81.0793 137.017 81.2852 137.065 81.4939 137.065C81.7027 137.065 81.9085 137.017 82.0951 136.923C82.1639 136.893 82.2234 136.845 82.2674 136.784C82.3114 136.723 82.3383 136.652 82.3453 136.577V130.623Z" fill="#443D31"/>
<path d="M81.5347 130.709C83.9984 130.709 85.9955 128.722 85.9955 126.27C85.9955 123.819 83.9984 121.832 81.5347 121.832C79.0711 121.832 77.0739 123.819 77.0739 126.27C77.0739 128.722 79.0711 130.709 81.5347 130.709Z" fill="#C6E800"/>
<path d="M72.0202 136.561H70.3174V142.515C70.3227 142.59 70.349 142.662 70.3931 142.724C70.4373 142.785 70.4978 142.833 70.5677 142.861C70.7534 142.957 70.9596 143.007 71.1688 143.007C71.378 143.007 71.5842 142.957 71.7699 142.861C71.8398 142.833 71.9003 142.785 71.9445 142.724C71.9887 142.662 72.0149 142.59 72.0202 142.515V136.561Z" fill="#443D31"/>
<path d="M71.2096 136.653C73.6732 136.653 75.6704 134.665 75.6704 132.214C75.6704 129.763 73.6732 127.775 71.2096 127.775C68.7459 127.775 66.7488 129.763 66.7488 132.214C66.7488 134.665 68.7459 136.653 71.2096 136.653Z" fill="#C6E800"/>
<path d="M60.9715 142.905H59.296V148.859C59.3023 148.933 59.3289 149.004 59.3731 149.065C59.4172 149.125 59.4771 149.172 59.5463 149.2C59.732 149.296 59.9382 149.346 60.1474 149.346C60.3566 149.346 60.5628 149.296 60.7485 149.2C60.8176 149.172 60.8775 149.125 60.9217 149.065C60.9658 149.004 60.9925 148.933 60.9987 148.859L60.9715 142.905Z" fill="#443D31"/>
<path d="M60.1609 143.008C62.6246 143.008 64.6217 141.02 64.6217 138.569C64.6217 136.118 62.6246 134.13 60.1609 134.13C57.6973 134.13 55.7001 136.118 55.7001 138.569C55.7001 141.02 57.6973 143.008 60.1609 143.008Z" fill="#C6E800"/>
<path d="M196.754 134.136H195.051V140.09C195.058 140.165 195.084 140.237 195.128 140.297C195.172 140.358 195.232 140.406 195.301 140.436C195.487 140.532 195.693 140.582 195.903 140.582C196.112 140.582 196.318 140.532 196.504 140.436C196.574 140.407 196.634 140.36 196.678 140.299C196.722 140.237 196.749 140.165 196.754 140.09V134.136Z" fill="#443D31"/>
<path d="M195.943 134.228C198.407 134.228 200.404 132.24 200.404 129.789C200.404 127.337 198.407 125.35 195.943 125.35C193.48 125.35 191.483 127.337 191.483 129.789C191.483 132.24 193.48 134.228 195.943 134.228Z" fill="#C6E800"/>
<path d="M186.429 140.079H184.726V146.034C184.734 146.108 184.761 146.179 184.805 146.24C184.849 146.3 184.908 146.349 184.976 146.38C185.163 146.473 185.369 146.522 185.577 146.522C185.786 146.522 185.992 146.473 186.179 146.38C186.247 146.35 186.307 146.301 186.351 146.241C186.395 146.18 186.422 146.108 186.429 146.034V140.079Z" fill="#443D31"/>
<path d="M185.618 140.166C188.082 140.166 190.079 138.178 190.079 135.727C190.079 133.276 188.082 131.288 185.618 131.288C183.155 131.288 181.157 133.276 181.157 135.727C181.157 138.178 183.155 140.166 185.618 140.166Z" fill="#C6E800"/>
<path d="M175.924 146.434H174.227V152.388C174.234 152.462 174.26 152.533 174.303 152.594C174.346 152.655 174.404 152.703 174.472 152.735C174.659 152.828 174.866 152.877 175.075 152.877C175.285 152.877 175.492 152.828 175.679 152.735C175.747 152.703 175.805 152.655 175.848 152.594C175.891 152.533 175.917 152.462 175.924 152.388V146.434Z" fill="#443D31"/>
<path d="M175.119 146.521C177.583 146.521 179.58 144.533 179.58 142.082C179.58 139.631 177.583 137.643 175.119 137.643C172.655 137.643 170.658 139.631 170.658 142.082C170.658 144.533 172.655 146.521 175.119 146.521Z" fill="#C6E800"/>
<path d="M165.974 152.107H164.288V158.061C164.296 158.136 164.323 158.207 164.367 158.267C164.411 158.328 164.47 158.377 164.538 158.408C164.726 158.501 164.932 158.55 165.142 158.55C165.352 158.55 165.558 158.501 165.746 158.408C165.813 158.376 165.871 158.328 165.914 158.267C165.957 158.206 165.984 158.135 165.991 158.061L165.974 152.107Z" fill="#443D31"/>
<path d="M165.169 152.177C167.633 152.177 169.63 150.19 169.63 147.739C169.63 145.287 167.633 143.3 165.169 143.3C162.706 143.3 160.708 145.287 160.708 147.739C160.708 150.19 162.706 152.177 165.169 152.177Z" fill="#C6E800"/>
<path d="M154.752 158.603H153.049V164.557C153.056 164.632 153.083 164.703 153.127 164.764C153.171 164.825 153.23 164.873 153.299 164.904C153.486 164.997 153.692 165.045 153.9 165.045C154.109 165.045 154.315 164.997 154.501 164.904C154.57 164.873 154.63 164.825 154.674 164.764C154.718 164.703 154.745 164.632 154.752 164.557V158.603Z" fill="#443D31"/>
<path d="M153.941 158.678C156.405 158.678 158.402 156.691 158.402 154.24C158.402 151.788 156.405 149.801 153.941 149.801C151.477 149.801 149.48 151.788 149.48 154.24C149.48 156.691 151.477 158.678 153.941 158.678Z" fill="#C6E800"/>
<path d="M154.752 171.594H153.049V177.548C153.054 177.624 153.08 177.696 153.125 177.757C153.169 177.818 153.229 177.866 153.299 177.895C153.485 177.991 153.691 178.041 153.9 178.041C154.11 178.041 154.316 177.991 154.501 177.895C154.571 177.866 154.632 177.818 154.676 177.757C154.72 177.696 154.746 177.624 154.752 177.548V171.594Z" fill="#443D31"/>
<path d="M153.941 171.681C156.405 171.681 158.402 169.693 158.402 167.242C158.402 164.79 156.405 162.803 153.941 162.803C151.477 162.803 149.48 164.79 149.48 167.242C149.48 169.693 151.477 171.681 153.941 171.681Z" fill="#C6E800"/>
<path d="M144.427 177.548H142.724V183.503C142.731 183.577 142.758 183.649 142.802 183.71C142.846 183.771 142.905 183.819 142.974 183.849C143.161 183.943 143.366 183.991 143.575 183.991C143.784 183.991 143.99 183.943 144.176 183.849C144.245 183.819 144.305 183.771 144.349 183.71C144.393 183.649 144.42 183.577 144.427 183.503V177.548Z" fill="#443D31"/>
<path d="M143.616 177.619C146.08 177.619 148.077 175.632 148.077 173.18C148.077 170.729 146.08 168.741 143.616 168.741C141.152 168.741 139.155 170.729 139.155 173.18C139.155 175.632 141.152 177.619 143.616 177.619Z" fill="#C6E800"/>
<path d="M133.378 183.887H131.675V189.842C131.682 189.916 131.709 189.988 131.753 190.049C131.797 190.109 131.857 190.158 131.925 190.188C132.112 190.281 132.318 190.33 132.527 190.33C132.735 190.33 132.941 190.281 133.128 190.188C133.197 190.158 133.256 190.109 133.3 190.049C133.344 189.988 133.371 189.916 133.378 189.842V183.887Z" fill="#443D31"/>
<path d="M132.567 183.974C135.031 183.974 137.028 181.986 137.028 179.535C137.028 177.084 135.031 175.096 132.567 175.096C130.104 175.096 128.107 177.084 128.107 179.535C128.107 181.986 130.104 183.974 132.567 183.974Z" fill="#C6E800"/>
<path d="M187.392 152.648H185.689V158.603C185.696 158.677 185.723 158.749 185.767 158.81C185.811 158.871 185.87 158.919 185.939 158.949C186.126 159.042 186.332 159.091 186.54 159.091C186.749 159.091 186.955 159.042 187.141 158.949C187.21 158.919 187.27 158.871 187.314 158.81C187.358 158.749 187.385 158.677 187.392 158.603V152.648Z" fill="#443D31"/>
<path d="M186.581 152.735C189.045 152.735 191.042 150.748 191.042 148.296C191.042 145.845 189.045 143.858 186.581 143.858C184.117 143.858 182.12 145.845 182.12 148.296C182.12 150.748 184.117 152.735 186.581 152.735Z" fill="#C6E800"/>
<path d="M177.067 158.603H175.364V164.557C175.371 164.632 175.398 164.703 175.442 164.764C175.486 164.825 175.545 164.873 175.614 164.904C175.801 164.997 176.006 165.045 176.215 165.045C176.424 165.045 176.63 164.997 176.816 164.904C176.885 164.873 176.945 164.825 176.989 164.764C177.033 164.703 177.06 164.632 177.067 164.557V158.603Z" fill="#443D31"/>
<path d="M176.256 158.678C178.72 158.678 180.717 156.691 180.717 154.24C180.717 151.788 178.72 149.801 176.256 149.801C173.792 149.801 171.795 151.788 171.795 154.24C171.795 156.691 173.792 158.678 176.256 158.678Z" fill="#C6E800"/>
<path d="M166.018 164.947H164.315V170.901C164.322 170.976 164.349 171.047 164.393 171.108C164.437 171.169 164.497 171.217 164.565 171.248C164.752 171.341 164.958 171.39 165.167 171.39C165.375 171.39 165.581 171.341 165.768 171.248C165.837 171.217 165.896 171.169 165.94 171.108C165.984 171.047 166.011 170.976 166.018 170.901V164.947Z" fill="#443D31"/>
<path d="M165.207 165.033C167.671 165.033 169.668 163.046 169.668 160.595C169.668 158.143 167.671 156.156 165.207 156.156C162.744 156.156 160.747 158.143 160.747 160.595C160.747 163.046 162.744 165.033 165.207 165.033Z" fill="#C6E800"/>
<path d="M207.993 140.74H206.29V146.694C206.297 146.768 206.323 146.839 206.367 146.899C206.411 146.96 206.471 147.006 206.541 147.035C206.726 147.131 206.932 147.181 207.142 147.181C207.351 147.181 207.557 147.131 207.743 147.035C207.812 147.006 207.872 146.96 207.916 146.899C207.96 146.839 207.987 146.768 207.993 146.694V140.74Z" fill="#443D31"/>
<path d="M207.182 140.848C209.646 140.848 211.643 138.861 211.643 136.409C211.643 133.958 209.646 131.97 207.182 131.97C204.719 131.97 202.722 133.958 202.722 136.409C202.722 138.861 204.719 140.848 207.182 140.848Z" fill="#C6E800"/>
<path d="M197.668 146.694H195.965V152.648C195.972 152.723 195.999 152.794 196.043 152.855C196.087 152.916 196.146 152.964 196.215 152.995C196.402 153.088 196.608 153.137 196.816 153.137C197.025 153.137 197.231 153.088 197.418 152.995C197.486 152.964 197.546 152.916 197.59 152.855C197.634 152.794 197.661 152.723 197.668 152.648V146.694Z" fill="#443D31"/>
<path d="M196.857 146.786C199.321 146.786 201.318 144.799 201.318 142.347C201.318 139.896 199.321 137.909 196.857 137.909C194.394 137.909 192.396 139.896 192.396 142.347C192.396 144.799 194.394 146.786 196.857 146.786Z" fill="#C6E800"/>
</svg>
