<svg width="222" height="222" viewBox="0 0 222 222" fill="none" xmlns="http://www.w3.org/2000/svg">
<g clip-path="url(#clip0)">
<path opacity="0.15" d="M32.6393 161.416C50.6655 161.416 65.2786 153.161 65.2786 142.977C65.2786 132.793 50.6655 124.537 32.6393 124.537C14.6131 124.537 0 132.793 0 142.977C0 153.161 14.6131 161.416 32.6393 161.416Z" fill="#D6D8E5"/>
<path opacity="0.5" d="M32.2627 151.289C42.3171 151.289 50.4677 146.685 50.4677 141.006C50.4677 135.326 42.3171 130.723 32.2627 130.723C22.2083 130.723 14.0576 135.326 14.0576 141.006C14.0576 146.685 22.2083 151.289 32.2627 151.289Z" fill="#EDEFF9"/>
<path d="M32.0903 140.291C34.9572 140.291 37.2813 138.977 37.2813 137.356C37.2813 135.735 34.9572 134.421 32.0903 134.421C29.2233 134.421 26.8992 135.735 26.8992 137.356C26.8992 138.977 29.2233 140.291 32.0903 140.291Z" fill="#EDEFF9"/>
<path d="M37.2541 98.4481H27.2713V136.836H37.2541V98.4481Z" fill="#EDEFF9"/>
<path d="M26.7948 98.013C26.7948 98.013 27.0671 105.907 32.8072 120.066C32.8072 120.066 38.1526 108.665 38.7062 97.7732C39.2598 86.8819 26.7948 98.013 26.7948 98.013Z" fill="#FFBC00"/>
<path d="M19.7842 68.2916L6.50245 80.9367L4.92335 97.4491L20.9866 89.5681L23.9089 69.4283L19.7842 68.2916Z" fill="#8C50FF"/>
<path d="M45.8303 68.2916L59.1074 80.9367L60.6911 97.4491L44.5688 89.022L41.7055 69.4283L45.8303 68.2916Z" fill="#8C50FF"/>
<path d="M32.6393 100.007C36.2857 100.007 39.2416 98.3368 39.2416 96.277C39.2416 94.2172 36.2857 92.5474 32.6393 92.5474C28.993 92.5474 26.037 94.2172 26.037 96.277C26.037 98.3368 28.993 100.007 32.6393 100.007Z" fill="#424956"/>
<path d="M22.6293 92.5473V89.1907H42.6267V92.6716L22.6293 92.5473Z" fill="#494949"/>
<path d="M32.6393 98.1995C38.1677 98.1995 42.6494 95.6669 42.6494 92.5429C42.6494 89.4189 38.1677 86.8864 32.6393 86.8864C27.1109 86.8864 22.6293 89.4189 22.6293 92.5429C22.6293 95.6669 27.1109 98.1995 32.6393 98.1995Z" fill="#2B303F"/>
<path d="M32.6076 94.3501C39.3539 94.3501 44.8229 91.2609 44.8229 87.4503C44.8229 83.6397 39.3539 80.5505 32.6076 80.5505C25.8612 80.5505 20.3922 83.6397 20.3922 87.4503C20.3922 91.2609 25.8612 94.3501 32.6076 94.3501Z" fill="#EDEFF9"/>
<path d="M45.7985 75.1603C45.7985 75.7153 45.7985 76.2614 45.7985 76.7898C45.7985 77.2338 45.7985 77.6778 45.7985 78.1218C45.7985 78.7212 45.7667 79.294 45.7441 79.8534C45.7441 80.5505 45.6941 81.212 45.6578 81.847C45.6215 82.4819 45.5898 83.1035 45.5444 83.6762C45.3584 86.1848 45.3629 88.0319 45.0453 88.7556C43.3164 92.7116 37.4674 90.5316 34.5814 89.1108C33.5151 88.5869 32.8117 88.1562 32.8117 88.1562H32.5486C32.5486 88.1562 31.7136 88.6002 30.4794 89.0797C27.4528 90.2785 22.0575 92.4053 20.5601 88.7423C20.2924 88.0852 20.0247 85.914 19.8613 83.6407C19.8205 83.0724 19.7842 82.4641 19.7479 81.8159C19.7116 81.1676 19.6934 80.5238 19.6662 79.8267C19.6662 79.2717 19.6344 78.699 19.6208 78.104C19.6208 77.66 19.6208 77.216 19.6208 76.772V75.1426C19.5391 59.6514 21.2181 34.8806 26.7631 24.309C28.3649 21.2498 30.2888 19.3806 32.5894 19.2696H32.8526C35.1214 19.385 37.0681 21.2454 38.6744 24.2912C44.1423 34.8229 45.8983 59.496 45.7985 75.1603Z" fill="#EDEFF9"/>
<path d="M32.6711 60.5527C35.2198 60.5527 37.2859 58.531 37.2859 56.0372C37.2859 53.5434 35.2198 51.5217 32.6711 51.5217C30.1224 51.5217 28.0563 53.5434 28.0563 56.0372C28.0563 58.531 30.1224 60.5527 32.6711 60.5527Z" fill="#2B303F"/>
<path d="M32.6711 61.2143C31.6246 61.2143 30.6017 60.9107 29.7316 60.3418C28.8615 59.773 28.1834 58.9644 27.7829 58.0184C27.3825 57.0725 27.2777 56.0315 27.4818 55.0273C27.686 54.023 28.1899 53.1006 28.9299 52.3766C29.6698 51.6525 30.6125 51.1595 31.6389 50.9597C32.6652 50.7599 33.729 50.8625 34.6958 51.2543C35.6626 51.6461 36.4889 52.3097 37.0703 53.1611C37.6517 54.0124 37.962 55.0134 37.962 56.0373C37.9608 57.4099 37.403 58.7261 36.411 59.6967C35.419 60.6673 34.0739 61.2131 32.6711 61.2143ZM32.6711 52.1834C31.8919 52.1825 31.1299 52.4078 30.4816 52.8307C29.8333 53.2536 29.3278 53.8552 29.029 54.5594C28.7302 55.2635 28.6515 56.0385 28.803 56.7864C28.9545 57.5343 29.3292 58.2214 29.8799 58.7608C30.4305 59.3003 31.1323 59.6677 31.8965 59.8168C32.6606 59.9659 33.4528 59.8898 34.1728 59.5983C34.8927 59.3067 35.5081 58.8127 35.9411 58.1789C36.3741 57.545 36.6052 56.7997 36.6052 56.0373C36.604 55.0163 36.1893 54.0374 35.4519 53.315C34.7145 52.5926 33.7145 52.1857 32.6711 52.1834Z" fill="#424956"/>
<path d="M32.6711 47.2772C35.2198 47.2772 37.2859 45.2555 37.2859 42.7617C37.2859 40.2679 35.2198 38.2462 32.6711 38.2462C30.1224 38.2462 28.0563 40.2679 28.0563 42.7617C28.0563 45.2555 30.1224 47.2772 32.6711 47.2772Z" fill="#2B303F"/>
<path d="M32.6711 47.9519C31.6239 47.9528 30.6 47.6499 29.7288 47.0815C28.8576 46.5131 28.1781 45.7047 27.7764 44.7585C27.3746 43.8123 27.2686 42.7708 27.4717 41.7656C27.6747 40.7604 28.1778 39.8368 28.9173 39.1113C29.6568 38.3859 30.5995 37.8913 31.6262 37.69C32.653 37.4887 33.7177 37.5898 34.6857 37.9804C35.6537 38.3711 36.4817 39.0339 37.0648 39.8849C37.648 40.7359 37.9602 41.737 37.962 42.7616C37.9632 44.1362 37.4066 45.4551 36.4145 46.4283C35.4224 47.4016 34.0759 47.9496 32.6711 47.9519ZM32.6711 38.921C31.8917 38.9201 31.1296 39.1455 30.4812 39.5686C29.8328 39.9918 29.3272 40.5936 29.0285 41.298C28.7299 42.0024 28.6515 42.7777 28.8033 43.5257C28.9552 44.2737 29.3304 44.9608 29.8815 45.5C30.4326 46.0393 31.1348 46.4064 31.8993 46.555C32.6637 46.7036 33.456 46.6269 34.1759 46.3346C34.8958 46.0424 35.5109 45.5477 35.9433 44.9133C36.3758 44.2788 36.6061 43.5331 36.6052 42.7705C36.6058 42.2644 36.5045 41.7631 36.3071 41.2953C36.1098 40.8275 35.8201 40.4023 35.4548 40.044C35.0895 39.6858 34.6556 39.4014 34.178 39.2072C33.7004 39.013 33.1883 38.9127 32.6711 38.9121V38.921Z" fill="#424956"/>
<path d="M45.7985 84.0891C45.7985 84.6441 45.7985 85.1902 45.7985 85.723C45.3447 87.1882 44.1105 88.5913 42.1049 89.719C36.9047 92.6539 28.4919 92.6539 23.2691 89.719C21.2634 88.5824 20.0337 87.1749 19.5754 85.723V84.0935C20.0292 85.5854 21.2544 87.0062 23.2872 88.1561C28.4919 91.091 36.9229 91.091 42.123 88.1561C44.115 86.9929 45.3765 85.5765 45.7985 84.0891Z" fill="#8C50FF"/>
<path d="M45.7577 86.6733C45.7577 87.2682 45.7259 87.8454 45.7032 88.4004C45.195 89.7857 43.988 91.1044 42.0731 92.1789C36.8729 95.1181 28.4601 95.1181 23.2373 92.1789C21.327 91.0955 20.1199 89.7679 19.6072 88.3738C19.6072 87.8188 19.5754 87.246 19.5618 86.6555C20.0156 88.103 21.2544 89.4794 23.2328 90.5982C28.4375 93.5375 36.8684 93.5375 42.0686 90.5982C44.056 89.4838 45.2812 88.1118 45.7577 86.6733Z" fill="#8C50FF"/>
<path d="M45.617 82.0867C45.0679 83.3876 43.8882 84.6264 42.0867 85.6387C36.8866 88.5735 28.4738 88.5735 23.2509 85.6387C21.4359 84.6086 20.2561 83.3654 19.707 82.0511C19.7433 82.6994 19.7796 83.3077 19.8205 83.876C20.4058 85.1014 21.5493 86.2558 23.2509 87.2193C25.4704 88.4027 27.9191 89.1167 30.4386 89.315C31.7962 89.4442 33.1629 89.4546 34.5224 89.3461C37.1659 89.1825 39.7412 88.4567 42.0686 87.2193C43.7566 86.2647 44.8955 85.1236 45.4854 83.9115L45.617 82.0867Z" fill="#8C50FF"/>
<path d="M38.5927 24.3001C34.7116 25.4657 30.5625 25.4657 26.6814 24.3001C28.2832 21.2409 30.2071 19.3717 32.5077 19.2607H32.7709C35.0624 19.3939 36.9864 21.2542 38.5927 24.3001Z" fill="#8C50FF"/>
<path d="M33.9371 68.3271H31.6728V97.4136H33.9371V68.3271Z" fill="#8C50FF"/>
<path opacity="0.4" d="M141.302 169.688L114.984 154.818C113.083 153.744 113.323 151.87 115.515 150.631L132.567 141.001L165.76 159.751L148.708 169.386C146.512 170.625 143.199 170.758 141.302 169.688Z" fill="#D6D8E5"/>
<path d="M143.222 168.582L116.903 153.708C115.007 152.638 115.243 150.765 117.434 149.526L134.491 139.896L167.684 158.646L150.65 168.276C148.436 169.519 145.119 169.652 143.222 168.582Z" fill="#B1B4C4"/>
<path d="M167.68 158.646V157.664L166.146 158.53L167.68 158.646Z" fill="#B1B4C4"/>
<path d="M115.619 151.937V150.938L117.194 151.577L115.619 151.937Z" fill="#B1B4C4"/>
<path d="M143.222 167.597L116.903 152.727C115.007 151.653 115.243 149.783 117.434 148.545L134.491 138.91L167.684 157.664L150.65 167.295C148.436 168.533 145.119 168.671 143.222 167.597Z" fill="#D6D8E5"/>
<path d="M134.573 138.954L130.467 125.616L164.022 144.451L167.68 157.664L134.573 138.954Z" fill="#9EA1AF"/>
<path d="M166.709 158.211L167.68 157.664L166.232 156.532L166.709 158.211Z" fill="#9EA1AF"/>
<path d="M133.516 139.456L129.409 126.118L162.965 144.953L166.704 158.21L133.516 139.456Z" fill="#B1B4C4"/>
<path d="M218.715 180.708L88.8064 107.31C86.9913 106.28 85.5075 103.519 85.5075 101.143V2.82826C85.5075 0.448415 86.9868 -0.643825 88.8064 0.386255L218.715 73.7661C220.53 74.7962 222.014 77.5579 222.014 79.9333V178.248C222 180.624 220.53 181.716 218.715 180.708Z" fill="#C4C7D6"/>
<path d="M219.368 181.703L220.807 180.89L220.185 176.716L219.368 181.703Z" fill="#C4C7D6"/>
<path d="M85.2761 0.994558L86.6918 0.190918L88.7292 1.332C88.7292 1.332 86.5602 1.65612 86.5058 1.6428C86.4513 1.62948 85.2761 0.994558 85.2761 0.994558Z" fill="#B1B4C4"/>
<path d="M217.508 181.361L87.6175 107.981C85.8024 106.951 84.3186 104.194 84.3186 101.814V3.49875C84.3186 1.12335 85.7934 0.0311149 87.6175 1.06119L217.508 74.4411C219.323 75.4712 220.807 78.2328 220.807 80.6082V178.932C220.807 181.299 219.332 182.391 217.508 181.361Z" fill="#E4E7F2"/>
<path d="M217.281 181.489L87.3861 108.11C85.571 107.079 84.0872 104.318 84.0872 101.942V3.62748C84.0872 1.25208 85.5665 0.159838 87.3861 1.18992L217.281 74.592C219.096 75.6176 220.58 78.3793 220.58 80.7592V179.047C220.58 181.427 219.1 182.52 217.281 181.489Z" fill="#D6D8E5"/>
<path d="M218.792 175.509L85.7616 100.344L85.807 4.02266C85.807 3.03698 86.5148 2.63738 87.3861 3.13466L217.281 76.5101C217.739 76.8023 218.12 77.1956 218.394 77.6583C218.669 78.1209 218.828 78.6401 218.86 79.1741L218.792 175.509Z" fill="white"/>
<path d="M138.271 45.3235L95.6537 21.2499C95.457 21.1111 95.2962 20.9292 95.1843 20.7187C95.0724 20.5082 95.0125 20.275 95.0093 20.0377V17.1295C95.0093 16.6855 95.2952 16.4502 95.6537 16.65L138.271 40.7237C138.467 40.8632 138.627 41.0452 138.739 41.2556C138.851 41.4659 138.911 41.6988 138.916 41.9358V44.844C138.916 45.3102 138.625 45.5278 138.271 45.3235Z" fill="#E9EAF2"/>
<path d="M127.326 46.0206L95.8488 28.2384C95.6513 28.1011 95.4897 27.9202 95.3769 27.7104C95.2642 27.5006 95.2036 27.2678 95.1999 27.0307V25.5833C95.1999 25.1393 95.4903 24.8995 95.8488 25.1038L127.326 42.886C127.521 43.025 127.68 43.2065 127.79 43.4162C127.901 43.6259 127.959 43.8579 127.962 44.0937V45.5411C127.962 46.0073 127.68 46.2249 127.326 46.0206Z" fill="#E9EAF2"/>
<path d="M127.326 51.504L95.8488 33.744C95.6513 33.6067 95.4897 33.4258 95.3769 33.216C95.2642 33.0062 95.2036 32.7733 95.1999 32.5363V31.08C95.1999 30.636 95.4903 30.3962 95.8488 30.6005L127.326 48.396C127.523 48.534 127.683 48.7152 127.795 48.9249C127.907 49.1347 127.967 49.3671 127.971 49.6037V51.0511C127.962 51.504 127.68 51.7127 127.326 51.504Z" fill="#E9EAF2"/>
<path d="M121.387 53.6441L95.8488 39.2141C95.6513 39.0768 95.4897 38.8959 95.3769 38.6861C95.2642 38.4762 95.2036 38.2434 95.1999 38.0064V36.5589C95.1999 36.1149 95.4903 35.8752 95.8488 36.0794L121.387 50.505C121.584 50.6435 121.745 50.8253 121.858 51.0357C121.971 51.2462 122.032 51.4795 122.036 51.7171V53.1646C122.036 53.6308 121.745 53.8439 121.387 53.6441Z" fill="#8C50FF"/>
<path d="M138.271 102.937L95.6537 78.8633C95.457 78.7245 95.2962 78.5426 95.1843 78.3321C95.0724 78.1216 95.0125 77.8884 95.0093 77.6511V74.7429C95.0093 74.2767 95.2952 74.0636 95.6537 74.2634L138.271 98.3371C138.467 98.4766 138.627 98.6586 138.739 98.869C138.851 99.0793 138.911 99.3122 138.916 99.5492V102.457C138.916 102.924 138.625 103.137 138.271 102.937Z" fill="#E9EAF2"/>
<path d="M127.326 103.634L95.8488 85.8741C95.6515 85.7356 95.4901 85.5538 95.3774 85.3433C95.2647 85.1329 95.2039 84.8995 95.1999 84.6619V83.2145C95.1999 82.7483 95.4903 82.5352 95.8488 82.7394L127.326 100.499C127.522 100.639 127.683 100.821 127.794 101.031C127.906 101.242 127.967 101.475 127.971 101.712V103.159C127.962 103.621 127.68 103.834 127.326 103.634Z" fill="#E9EAF2"/>
<path d="M127.326 109.122L95.8488 91.3397C95.6518 91.2019 95.4906 91.0209 95.3779 90.8112C95.2652 90.6015 95.2043 90.3689 95.1999 90.132V88.6846C95.1999 88.2406 95.4903 88.0053 95.8488 88.2095L127.326 105.97C127.522 106.109 127.683 106.291 127.794 106.501C127.906 106.712 127.967 106.945 127.971 107.182V108.629C127.962 109.109 127.68 109.322 127.326 109.122Z" fill="#E9EAF2"/>
<path d="M121.387 111.253L95.8488 96.8276C95.6512 96.6893 95.4896 96.5076 95.3769 96.2971C95.2642 96.0865 95.2036 95.8531 95.1999 95.6154V94.168C95.1999 93.7018 95.4903 93.4887 95.8488 93.6929L121.387 108.118C121.584 108.257 121.745 108.439 121.858 108.649C121.971 108.86 122.032 109.093 122.036 109.331V110.778C122.036 111.244 121.745 111.444 121.387 111.253Z" fill="#8C50FF"/>
<path d="M149.674 110.085C149.674 110.085 154.375 113.948 161.164 108.673C166.01 104.784 170.343 107.004 172.757 108.336C175.171 109.668 178.656 110.485 185.295 122.215C185.295 122.215 187.455 125.892 191.021 127.908C194.588 129.923 196.303 128.938 199.108 124.8C201.912 120.661 203.75 116.079 208.904 119.072V160.67L149.212 126.984V109.815L149.674 110.085Z" fill="#F5F6FF"/>
<path d="M136.701 92.4496L95.8624 69.3616C95.6651 69.2231 95.5037 69.0414 95.391 68.8309C95.2783 68.6204 95.2175 68.3871 95.2135 68.1495V45.0926C95.2135 44.6486 95.5039 44.4133 95.8624 44.6131L136.701 67.7011C136.899 67.8396 137.06 68.0214 137.173 68.2318C137.285 68.4423 137.346 68.6756 137.35 68.9132V91.979C137.35 92.4363 137.06 92.6495 136.701 92.4496Z" fill="#E9EAF2"/>
<path d="M149.212 109.117V126.975L208.904 160.692V119.094" stroke="#E9EAF2" stroke-width="0.31" stroke-miterlimit="10"/>
<path d="M172.671 108.545V140.184" stroke="#E9EAF2" stroke-width="0.31" stroke-miterlimit="10"/>
<path d="M190.935 128.556V150.498" stroke="#E9EAF2" stroke-width="0.31" stroke-miterlimit="10"/>
<path d="M149.212 109.815C159.802 116.239 161.3 101.716 172.839 108.234C184.378 114.752 182.786 123.246 191.303 128.059C199.82 132.872 200.02 114.073 208.904 119.094" stroke="#E9EAF2" stroke-width="1.53" stroke-miterlimit="10"/>
<path d="M173.664 110.238C174.213 109.928 174.213 108.921 173.663 107.989C173.112 107.056 172.221 106.552 171.672 106.862C171.123 107.172 171.124 108.18 171.674 109.112C172.224 110.044 173.115 110.548 173.664 110.238Z" fill="#8C50FF"/>
<path d="M210.733 121.269C211.285 120.959 211.286 119.949 210.736 119.012C210.186 118.075 209.293 117.568 208.741 117.878C208.19 118.188 208.188 119.199 208.739 120.135C209.289 121.072 210.182 121.58 210.733 121.269Z" fill="#8C50FF"/>
<path d="M192.688 130.378C193.24 130.068 193.241 129.057 192.691 128.12C192.141 127.184 191.248 126.676 190.696 126.986C190.145 127.296 190.144 128.307 190.694 129.244C191.244 130.18 192.137 130.688 192.688 130.378Z" fill="#8C50FF"/>
<path d="M150.208 111.507C150.757 111.196 150.756 110.189 150.206 109.257C149.656 108.325 148.765 107.82 148.216 108.13C147.666 108.441 147.667 109.448 148.217 110.38C148.767 111.312 149.659 111.817 150.208 111.507Z" fill="#8C50FF"/>
<path d="M150.895 79.1342L148.449 77.7533C148.252 77.6148 148.09 77.4331 147.978 77.2226C147.865 77.0121 147.804 76.7788 147.8 76.5412V64.9972C147.8 64.531 148.091 64.3179 148.449 64.5177L150.895 65.903C151.092 66.0366 151.254 66.2134 151.369 66.4191C151.484 66.6249 151.549 66.8541 151.558 67.0885V78.6547C151.558 79.1209 151.253 79.334 150.895 79.1342Z" fill="#E9EAF2"/>
<path d="M156.549 82.3176L154.103 80.9323C153.906 80.795 153.744 80.6141 153.631 80.4043C153.519 80.1945 153.458 79.9616 153.454 79.7246V56.1926C153.454 55.7486 153.745 55.5089 154.103 55.7131L156.549 57.0984C156.746 57.2369 156.908 57.4186 157.02 57.6291C157.133 57.8396 157.194 58.0729 157.198 58.3105V81.8425C157.18 82.3043 156.889 82.5174 156.549 82.3176Z" fill="#8C50FF"/>
<path d="M167.798 88.6801L165.352 87.2993C165.154 87.1615 164.992 86.9799 164.879 86.7693C164.766 86.5587 164.706 86.3249 164.703 86.0872V64.8462C164.703 64.38 164.994 64.1669 165.352 64.3667L167.798 65.7475C167.995 65.886 168.157 66.0678 168.269 66.2783C168.382 66.4887 168.443 66.7221 168.447 66.9597V88.2051C168.447 88.6713 168.156 88.8844 167.798 88.6801Z" fill="#E9EAF2"/>
<path d="M173.434 91.8636L170.988 90.4828C170.79 90.3443 170.629 90.1625 170.516 89.952C170.404 89.7416 170.343 89.5082 170.339 89.2706V71.6705C170.339 71.2265 170.629 70.9912 170.988 71.191L173.434 72.5763C173.631 72.7136 173.793 72.8945 173.905 73.1043C174.018 73.3141 174.079 73.5469 174.082 73.7839V91.3841C174.082 91.8547 173.792 92.0678 173.434 91.8636Z" fill="#8C50FF"/>
<path d="M184.655 98.2039L182.205 96.823C182.008 96.6843 181.847 96.5024 181.735 96.2919C181.624 96.0814 181.564 95.8482 181.56 95.6109V86.913C181.56 86.4423 181.846 86.2292 182.205 86.4334L184.655 87.8143C184.851 87.9537 185.011 88.1358 185.123 88.3462C185.235 88.5565 185.295 88.7893 185.299 89.0264V97.7244C185.299 98.1906 185.009 98.4037 184.655 98.2039Z" fill="#E9EAF2"/>
<path d="M190.286 101.387L187.859 100.002C187.661 99.8648 187.5 99.6839 187.387 99.4741C187.274 99.2643 187.214 99.0314 187.21 98.7944V69.2107C187.21 68.7401 187.5 68.5269 187.859 68.7312L190.305 70.112C190.502 70.2503 190.664 70.432 190.776 70.6425C190.889 70.853 190.95 71.0865 190.953 71.3241V100.908C190.935 101.374 190.645 101.587 190.286 101.387Z" fill="#8C50FF"/>
<path d="M204.031 109.153L201.585 107.768C201.388 107.63 201.226 107.45 201.113 107.24C201.001 107.03 200.94 106.797 200.936 106.56V97.8577C200.936 97.3915 201.227 97.1784 201.585 97.3782L204.031 98.7635C204.229 98.9012 204.391 99.0828 204.504 99.2934C204.617 99.5041 204.677 99.7378 204.68 99.9756V108.674C204.68 109.14 204.389 109.353 204.031 109.153Z" fill="#E9EAF2"/>
<path d="M209.667 112.332L207.221 110.947C207.023 110.809 206.861 110.627 206.748 110.417C206.635 110.206 206.575 109.972 206.572 109.735V98.1907C206.572 97.7245 206.862 97.5114 207.221 97.7112L209.667 99.092C209.864 99.2305 210.025 99.4123 210.138 99.6227C210.251 99.8332 210.312 100.067 210.316 100.304V111.87C210.316 112.332 210.025 112.536 209.667 112.332Z" fill="#8C50FF"/>
<path opacity="0.4" d="M47.6045 221.112L27.3484 209.683C25.0524 208.382 25.3382 206.131 27.9928 204.622L38.2751 198.81C40.9251 197.314 44.9227 197.136 47.2324 198.468L67.4885 209.914C69.7845 211.211 69.4986 213.466 66.8441 214.971L56.5618 220.783C53.9118 222.258 49.9141 222.444 47.6045 221.112Z" fill="#D6D8E5"/>
<path d="M78.0476 206.846V179.181L34.7947 174.417V202.255C34.7675 203.108 35.2485 203.92 36.3375 204.524L56.5936 215.97C58.8896 217.267 62.9009 217.103 65.5509 215.606L75.8332 209.794C77.3261 208.951 78.0703 207.863 78.0249 206.846H78.0476Z" fill="#D6D8E5"/>
<path d="M78.0204 182.2V179.181H74.6943L56.2215 168.742C53.9254 167.441 49.9142 167.606 47.2642 169.102L36.9819 174.936C36.799 175.038 36.6218 175.149 36.4509 175.269L34.7947 174.439C34.7947 174.439 34.7947 177.631 34.7947 177.738C34.7675 178.581 35.2485 179.394 36.3375 179.998L56.5936 191.439C58.8896 192.736 62.9009 192.572 65.5509 191.075L75.8332 185.268C77.3715 184.38 78.102 183.27 78.0158 182.222L78.0204 182.2Z" fill="#EDF0F9"/>
<path d="M56.5936 188.127L36.3375 176.685C34.0415 175.389 34.3273 173.133 36.9818 171.624L47.2642 165.816C49.9142 164.316 53.9254 164.156 56.2215 165.452L76.4776 176.894C78.7736 178.191 78.4877 180.446 75.8332 181.956L65.5509 187.763C62.9009 189.264 58.8896 189.424 56.5936 188.127Z" fill="#E2E5F2"/>
<path d="M52.0287 172.507V171.406H51.339L51.1257 171.273C50.4473 170.936 49.6971 170.76 48.9363 170.76C48.1754 170.76 47.4253 170.936 46.7469 171.273C46.6172 171.347 46.4942 171.432 46.3793 171.526L45.8393 171.406V172.507C45.8647 172.774 45.9621 173.029 46.1216 173.247C46.2811 173.465 46.4969 173.637 46.7469 173.746C47.4253 174.083 48.1754 174.259 48.9363 174.259C49.6971 174.259 50.4473 174.083 51.1257 173.746C51.3757 173.637 51.5913 173.465 51.7501 173.247C51.909 173.029 52.0052 172.774 52.0287 172.507Z" fill="#6E48E5"/>
<path d="M48.934 173.156C50.6432 173.156 52.0287 172.372 52.0287 171.406C52.0287 170.44 50.6432 169.657 48.934 169.657C47.2249 169.657 45.8393 170.44 45.8393 171.406C45.8393 172.372 47.2249 173.156 48.934 173.156Z" fill="#8C50FF"/>
<path d="M59.7064 177.156C59.5376 177.526 59.2446 177.828 58.876 178.013C58.1977 178.348 57.4486 178.522 56.6889 178.522C55.9291 178.522 55.18 178.348 54.5017 178.013C54.1331 177.828 53.8401 177.526 53.6713 177.156C53.4444 176.588 53.7258 175.979 54.5017 175.535C55.18 175.201 55.9291 175.026 56.6889 175.026C57.4486 175.026 58.1977 175.201 58.876 175.535C59.6565 175.957 59.9333 176.566 59.7064 177.156Z" fill="#5E42D3"/>
<path d="M59.7064 177.156C59.5376 177.526 59.2446 177.828 58.876 178.013C58.1977 178.348 57.4486 178.522 56.6889 178.522C55.9291 178.522 55.18 178.348 54.5017 178.013C54.2798 177.997 54.0721 177.9 53.9205 177.741C53.7689 177.581 53.6846 177.371 53.6846 177.154C53.6846 176.936 53.7689 176.726 53.9205 176.567C54.0721 176.408 54.2798 176.31 54.5017 176.295C55.18 175.96 55.9291 175.785 56.6889 175.785C57.4486 175.785 58.1977 175.96 58.876 176.295C59.2454 176.48 59.5385 176.784 59.7064 177.156Z" fill="#8C50FF"/>
<path d="M66.9803 181.094V179.993H66.2905L66.0773 179.86C65.3988 179.523 64.6487 179.347 63.8878 179.347C63.127 179.347 62.3769 179.523 61.6984 179.86C61.5699 179.934 61.447 180.017 61.3309 180.109L60.7909 179.993V181.094C60.8163 181.361 60.9137 181.616 61.0732 181.834C61.2326 182.052 61.4484 182.224 61.6984 182.333C62.3769 182.67 63.127 182.846 63.8878 182.846C64.6487 182.846 65.3988 182.67 66.0773 182.333C66.3272 182.224 66.5429 182.052 66.7017 181.834C66.8605 181.616 66.9567 181.361 66.9803 181.094Z" fill="#6E48E5"/>
<path d="M63.8856 181.742C65.5947 181.742 66.9803 180.959 66.9803 179.993C66.9803 179.027 65.5947 178.244 63.8856 178.244C62.1764 178.244 60.7909 179.027 60.7909 179.993C60.7909 180.959 62.1764 181.742 63.8856 181.742Z" fill="#8C50FF"/>
<path d="M29.6309 168.058C29.5083 169.093 28.2696 173.56 28.5146 175.091C28.7596 176.623 33.0976 179.181 33.0976 179.181L33.6966 176.561L31.3098 174.27L31.9541 169.932L29.6309 168.058Z" fill="#FFCEA9"/>
<path d="M32.966 163.658C32.5471 163.467 32.071 163.434 31.6283 163.564C31.1857 163.694 30.8075 163.979 30.5656 164.364C29.9303 165.394 29.2724 168.92 29.2043 169.524C29.2043 169.524 30.1118 170.727 31.4323 170.527L32.966 163.658Z" fill="#EDEDED"/>
<path d="M37.8894 213.457C38.8281 213.71 39.8309 213.591 40.68 213.124C41.3516 213.147 45.0044 211.615 45.499 212.898C45.9528 214.026 44.351 215.065 43.507 215.264C41.6647 215.708 40.3034 216.596 39.5592 216.756C39.0102 216.867 38.2932 216.943 37.8576 216.517C37.3267 216.01 37.3721 214.128 37.8894 213.457Z" fill="#38226D"/>
<path d="M39.5592 216.441C40.3034 216.29 41.6647 215.389 43.507 214.954C44.2149 214.785 45.4355 214.03 45.558 213.125C45.7214 214.159 44.2965 215.078 43.507 215.265C41.6647 215.709 40.3034 216.597 39.5592 216.756C39.0102 216.867 38.2932 216.943 37.8576 216.517C37.7383 216.392 37.6539 216.239 37.6126 216.073C37.8848 216.279 38.2028 216.42 38.541 216.484C38.8791 216.548 39.228 216.533 39.5592 216.441Z" fill="#9C73FF"/>
<path d="M31.9723 210.856C32.9104 211.11 33.9132 210.992 34.7629 210.527C35.4345 210.527 39.0828 209.018 39.5819 210.301C40.0357 211.424 38.4339 212.463 37.5899 212.667C35.7476 213.111 34.3818 213.999 33.6421 214.155C33.0885 214.266 32.3761 214.341 31.936 213.919C31.4096 213.409 31.455 211.526 31.9723 210.856Z" fill="#38226D"/>
<path d="M33.6421 213.844C34.3818 213.688 35.7476 212.792 37.5899 212.352C38.2978 212.188 39.5184 211.428 39.6409 210.527C39.8043 211.562 38.3794 212.476 37.5899 212.667C35.7476 213.111 34.3818 213.999 33.6421 214.155C33.0885 214.266 32.3761 214.341 31.936 213.919C31.8209 213.792 31.7385 213.64 31.6955 213.475C31.9685 213.68 32.2866 213.82 32.6244 213.884C32.9623 213.948 33.3107 213.934 33.6421 213.844Z" fill="#9C73FF"/>
<path d="M31.8997 201.154C32.0569 199.828 32.3379 198.519 32.7391 197.243C32.7391 197.243 32.4896 193.868 32.3625 190.667C32.2219 187.035 30.9332 183.838 31.9496 180.943L43.3981 183.434C43.3981 183.434 42.7084 197.913 42.5541 199.662C42.471 201.027 42.2997 202.386 42.0413 203.729C41.5195 206.54 40.68 213.227 40.68 213.227C39.473 213.915 37.8803 213.533 37.8803 213.533C37.8803 213.533 37.9711 205.097 38.0482 203.055C38.1435 200.581 38.2206 200.768 38.2206 200.768L37.8395 194.61L37.5944 191.546C37.5944 191.546 37.2768 193.793 37.0681 195.804C36.8911 197.553 36.46 199.138 35.9745 202.397C35.557 205.226 34.8764 210.909 34.8764 210.909C33.6648 211.597 32.0222 211.024 32.0222 211.024C32.0222 211.024 31.573 203.605 31.8997 201.154Z" fill="#8C50FF"/>
<path d="M33.5786 163.716C34.4544 163.761 35.1033 163.978 35.2122 163.716C35.3031 163.276 35.3682 162.831 35.4073 162.384C35.3075 162.136 35.2212 161.869 35.2212 161.869C34.1277 161.212 33.7828 160.053 33.6376 158.703C33.3926 156.399 34.6631 154.383 37.0182 154.144C39.2325 153.917 40.8661 155.44 41.2972 157.531C41.5331 158.561 42.0005 160.515 41.3698 162.211C41.0158 163.161 40.5621 163.916 40.1083 164.062C39.6693 164.049 39.2314 164.01 38.7969 163.947C38.7969 163.947 38.6789 164.586 38.5973 164.995C38.5156 165.403 38.5473 165.625 39.3823 166.127C40.2172 166.629 38.1163 167.681 36.755 167.579C35.3937 167.477 33.8418 166.669 33.4153 165.803C32.9297 164.831 32.9706 163.69 33.5786 163.716Z" fill="#FFCEA9"/>
<path d="M34.831 163.836C34.5905 164.427 35.2031 165.168 36.8412 165.648C38.4793 166.127 38.629 165.505 38.629 165.505C39.7172 165.982 40.7776 166.517 41.8054 167.108C42.79 167.783 43.2257 169.728 43.3572 173.014C43.5115 176.814 43.5251 182.453 43.3935 183.425C43.3935 183.425 41.5785 185.201 39.2053 185.028C36.8321 184.855 32.9025 182.808 31.9451 181.232C31.9723 177.898 32.3716 177.356 31.818 175.438C30.5565 171.042 29.894 169.222 30.5066 166.322C31.0103 163.912 31.7182 163.614 32.6938 163.636C33.4094 163.664 34.1229 163.731 34.831 163.836Z" fill="#F4F4F4"/>
<path d="M47.06 176.166C45.1269 176.641 44.6777 175.451 44.4236 174.465C43.8065 172.077 43.4798 169.923 43.0215 168.569C42.4815 166.971 41.9143 166.718 41.1247 166.407C40.2172 166.038 39.3913 166.811 39.6999 168.844C40.0807 171.204 40.6728 173.526 41.4696 175.784C41.7101 176.526 42.2455 177.844 43.0532 178.484C44.047 179.269 45.5489 179.238 47.8178 178.688C48.7843 178.448 49.8461 177.884 51.6748 177.049C52.1648 176.827 52.546 176.676 53.4898 176.246C54.4376 175.832 55.2677 175.198 55.9084 174.399C56.403 173.697 56.4665 173.369 56.3622 173.209C56.2578 173.049 56.0128 173.053 55.7496 173.351C55.3676 173.848 54.8973 174.274 54.3611 174.607C54.3611 174.607 54.9691 173.99 55.3003 173.591C55.5963 173.235 55.842 172.842 56.0309 172.423C56.2033 172.014 55.8449 171.459 55.5771 171.753C55.3094 172.046 55.1733 172.339 54.6696 172.925C54.4025 173.238 54.0978 173.518 53.7621 173.759C54.0719 173.35 54.3466 172.916 54.5834 172.463C54.7971 172.109 54.9026 171.702 54.8874 171.291C54.8874 171.078 54.5652 170.825 54.2748 171.229C53.9945 171.784 53.6472 172.304 53.2403 172.778C52.7865 173.222 52.4235 173.48 52.4144 173.355C52.4053 173.231 52.6776 172.987 52.8364 172.467C52.9952 171.948 52.8364 171.393 52.5415 171.335C52.2465 171.277 52.3055 171.291 52.0877 171.779C51.7626 172.28 51.4701 172.801 51.2119 173.338C51.0601 173.837 50.7878 174.294 50.4178 174.67C49.9414 175.167 48.8932 175.713 47.06 176.166Z" fill="#FFCEA9"/>
<path d="M40.4078 166.078C41.6965 165.892 42.6085 166.46 43.1757 168.369C43.7429 170.278 44.1423 171.828 44.1423 171.828C43.6332 172.548 42.8621 173.05 41.9869 173.231C40.4441 173.6 39.8905 172.876 39.8905 172.876C39.8905 172.876 39.4639 170.878 39.1962 169.515C38.9285 168.152 38.8151 166.309 40.4078 166.078Z" fill="#EDEDED"/>
<path d="M41.2155 157.234C41.2155 157.234 43.2483 154.206 38.8378 153.588C35.6614 153.144 33.6149 155.142 33.3926 157.314C33.1657 159.387 34.4725 161.541 35.4118 162.393C36.3377 162.624 37.3182 162.508 38.1616 162.069C38.2157 161.505 38.2369 160.939 38.2252 160.373C38.2252 160.373 36.6597 157.176 41.2155 157.234Z" fill="#3A2C6D"/>
<path opacity="0.4" d="M173.601 215.251C179.774 215.251 184.778 212.424 184.778 208.937C184.778 205.451 179.774 202.624 173.601 202.624C167.429 202.624 162.425 205.451 162.425 208.937C162.425 212.424 167.429 215.251 173.601 215.251Z" fill="#D6D8E5"/>
<path d="M173.506 148.016C173.96 147.292 177.499 146.813 178.661 149.739C179.115 150.849 179.033 153.686 179.401 155.467C179.768 157.247 180.635 158.259 180.948 159.702C181.261 161.145 180.753 163.57 177.191 164C173.629 164.431 170.892 163.205 170.053 162.095C169.214 160.985 169.195 158.623 170.053 157.354C170.911 156.084 171.591 155.058 171.569 153.406L173.506 148.016Z" fill="#3A2C6D"/>
<path d="M175.838 147.515C175.838 147.515 173.179 146.764 171.569 148.167C171.038 148.647 170.652 149.26 170.452 149.939C170.252 150.619 170.246 151.339 170.434 152.021C170.647 152.843 171.078 153.961 171.746 154.024C172.413 154.086 175.838 147.515 175.838 147.515Z" fill="#3A2C6D"/>
<path d="M176.855 154.605C176.855 154.605 176.678 157.5 176.732 157.713C176.787 157.926 177.894 158.157 178.207 158.388C178.52 158.619 176.596 161.58 175.621 162.016C174.645 162.451 171.618 161.336 171.405 159.867C171.215 158.508 172.272 157.456 172.68 157.087C172.958 157.061 173.237 157.054 173.515 157.065L173.606 155.662C174.931 155.249 176.855 154.605 176.855 154.605Z" fill="#FFCEA9"/>
<path d="M169.708 160.08C169.708 159.995 169.254 160.231 169.254 160.235C169.254 160.24 169.041 167.672 168.669 168.347C167.721 169.923 165.211 172.596 165.148 172.894C164.962 173.782 165.497 172.987 166.359 172.894C166.845 172.836 169.699 170.012 170.339 169.368L170.38 169.39V169.319L170.461 169.235C170.478 169.034 170.478 168.832 170.461 168.631C171.664 160.555 170.203 160.018 169.708 160.08Z" fill="#FFCEA9"/>
<path d="M177.259 157.997C178.094 158.122 179.042 158.557 179.174 159.001C179.517 160.607 179.436 162.273 178.938 163.84C178.216 165.705 177.731 166.891 177.313 167.694C177.313 167.694 173.715 169.204 170.811 167.441C170.811 167.441 170.611 165.443 170.597 164.373C167.92 162.087 170.212 159.267 172.481 157.078C172.752 157.054 173.026 157.054 173.297 157.078C173.297 157.078 171.274 159.423 172.68 160.755C175.698 159.84 176.297 158.508 177.259 157.997Z" fill="#F4F4F4"/>
<path d="M171.324 151.013C171.618 149.153 172.993 147.745 174.954 147.856C175.744 147.898 176.5 148.182 177.116 148.667C177.732 149.153 178.176 149.816 178.386 150.562C178.596 151.309 178.561 152.101 178.285 152.826C178.009 153.552 177.507 154.174 176.85 154.605C176.783 154.887 176.681 155.16 176.546 155.418C175.852 156.208 174.005 156.71 173.397 156.719C172.871 156.719 172.417 156.244 171.923 155.444C170.897 153.779 171.16 151.932 171.324 151.013Z" fill="#FFCEA9"/>
<path d="M175.566 147.892C176.928 148.154 178.071 148.536 178.448 149.854C178.702 150.769 179.038 152.518 178.72 153.233L178.52 153.762L176.855 154.605C176.855 154.605 176.074 153.97 176.319 152.11C176.31 151.859 176.228 151.616 176.084 151.408C175.979 151.232 175.901 151.042 175.852 150.844C175.654 150.342 175.268 149.932 174.772 149.699C173.533 149.02 171.718 149.606 171.464 149.854C171.815 149.117 172.414 148.52 173.16 148.163C173.907 147.806 174.756 147.71 175.566 147.892Z" fill="#3A2C6D"/>
<path d="M178.071 206.766C177.372 207.321 176.288 206.939 176.256 206.988C175.443 207.67 174.591 208.308 173.706 208.898C173.252 209.231 172.594 209.679 172.717 210.318C172.934 211.468 174.813 211.118 175.521 210.762C176.229 210.407 176.81 209.83 177.481 209.43C177.958 209.142 178.429 208.986 178.507 208.4C178.529 208.032 178.194 206.753 178.071 206.766Z" fill="#38226D"/>
<path d="M178.479 208.152C178.384 208.72 177.921 208.875 177.445 209.164C176.764 209.577 176.165 210.176 175.457 210.527C174.749 210.878 173.166 211.171 172.708 210.354C172.957 211.459 174.804 211.113 175.503 210.762C176.202 210.412 176.791 209.83 177.463 209.43C177.939 209.142 178.411 208.986 178.488 208.4C178.492 208.317 178.489 208.234 178.479 208.152Z" fill="#9C73FF"/>
<path d="M173.184 205.812C172.544 206.322 171.582 206.034 171.537 206.083C170.791 206.703 170.013 207.284 169.204 207.823C168.805 208.129 168.183 208.538 168.297 209.124C168.497 210.176 170.216 209.852 170.87 209.532C171.523 209.213 172.045 208.676 172.662 208.303C173.116 208.036 173.529 207.899 173.597 207.357C173.642 207.028 173.297 205.798 173.184 205.812Z" fill="#38226D"/>
<path d="M173.592 207.139C173.506 207.659 173.08 207.801 172.644 208.063C172.022 208.445 171.473 208.991 170.829 209.315C170.185 209.639 168.733 209.905 168.311 209.155C168.537 210.167 170.23 209.852 170.874 209.532C171.519 209.213 172.05 208.676 172.667 208.303C173.12 208.036 173.533 207.899 173.601 207.357C173.607 207.284 173.604 207.211 173.592 207.139Z" fill="#9C73FF"/>
<path d="M169.427 174.11C169.735 171.757 170.62 168.338 170.62 168.338C171.457 168.72 172.362 168.939 173.284 168.982C174.636 168.977 175.985 168.849 177.313 168.6C177.746 169.341 178.22 170.059 178.734 170.749C179.428 171.69 180.775 173.75 180.449 177.351C180.235 179.705 178.888 189.699 178.888 189.699C179.413 191.379 179.692 193.124 179.718 194.88C179.591 196.97 179.309 199.047 178.874 201.096L178.071 206.766C178.071 206.766 177 207.526 176.256 206.988L176.351 201.438C176.261 200.08 176.12 198.077 176.034 196.799C175.888 194.712 175.507 191.404 175.398 190.583C175.289 189.761 175.017 188.309 174.886 186.693C174.754 185.077 174.137 176.85 174.137 176.85L174.051 178.39C174.051 178.39 173.964 180.89 173.597 183.976C173.229 187.062 173.102 188.416 173.102 188.416C173.451 189.038 173.694 189.711 173.824 190.409C173.887 191.075 174.663 196.35 174.2 199.032L173.243 205.856C173.006 206.017 172.732 206.121 172.446 206.158C172.159 206.195 171.868 206.165 171.596 206.069L171.033 199.192C170.657 196.577 169.858 191.031 169.735 190.312C169.463 188.859 169.302 187.388 169.254 185.912C169.055 182.928 169.118 176.459 169.427 174.11Z" fill="#FFCEA9"/>
<path d="M177.313 167.694L179.382 171.757C179.382 171.757 182.559 176.277 179.269 187.896L179.882 191.484C179.882 191.484 173.692 195.369 169.549 191.484C169.549 191.484 168.115 180.743 168.878 175.793C169.304 172.948 169.949 170.138 170.806 167.388C170.806 167.388 171.823 168.485 177.041 167.761" fill="#8C50FF"/>
<path d="M172.481 157.078C172.481 157.078 170.838 156.585 169.091 160.151L169.744 160.533C169.744 160.533 171.464 157.993 172.481 157.078Z" fill="#EDEDED"/>
<path d="M159.653 176.397L166.722 172.379L171.795 175.242L164.726 179.265L159.653 176.397Z" fill="#F4F4F4"/>
<path d="M165.81 172.672C165.367 172.715 164.938 172.851 164.553 173.071C164.412 173.192 164.26 173.3 164.1 173.395C164.032 173.426 163.963 173.471 163.891 173.502C163.783 173.541 163.685 173.603 163.605 173.684C163.526 173.798 163.483 173.932 163.482 174.07C163.446 174.235 163.437 174.404 163.455 174.572C163.519 174.821 163.782 174.798 163.909 174.625C163.978 174.539 164.018 174.433 164.022 174.323C164.026 174.218 164.055 174.116 164.107 174.024C164.159 173.932 164.233 173.854 164.322 173.795L166.01 172.769C165.99 172.735 165.961 172.708 165.925 172.691C165.89 172.673 165.85 172.667 165.81 172.672Z" fill="#FFCEA9"/>
<path d="M179.26 160.284C179.028 159.343 178.275 159.645 177.626 159.094C176.124 161.176 177.123 166.806 177.327 167.406L171.555 171.007L171.165 171.242C170.508 171.664 169.782 171.973 169.018 172.156C168.442 172.223 168.143 173.018 167.526 173.089C167.478 173.091 167.433 173.106 167.394 173.133C167.356 173.159 167.327 173.197 167.31 173.24C167.293 173.283 167.289 173.33 167.299 173.375C167.309 173.42 167.333 173.461 167.367 173.493C167.612 173.724 168.274 173.533 168.728 173.018C168.726 173.03 168.726 173.042 168.728 173.053C168.732 173.136 168.757 173.216 168.801 173.286C168.846 173.356 168.908 173.413 168.982 173.453C169.015 173.473 169.052 173.485 169.091 173.488C169.091 173.526 169.102 173.563 169.123 173.595C169.155 173.66 169.204 173.717 169.264 173.759C169.324 173.802 169.394 173.829 169.468 173.839C169.5 173.93 169.562 174.009 169.644 174.062C169.726 174.116 169.823 174.142 169.921 174.137C170.054 174.13 170.179 174.075 170.271 173.981C170.763 173.798 171.198 173.492 171.532 173.093C171.828 172.793 172.14 172.508 172.467 172.241C174.033 171.579 178.729 169.617 178.938 169.337C179.264 168.915 179.596 161.616 179.26 160.284Z" fill="#FFCEA9"/>
<path d="M179.786 162.81C179.786 162.81 177.939 163.618 176.406 162.864L176.628 160.035C176.628 160.035 176.651 158.517 178.035 158.366C179.419 158.215 180.145 159.951 179.786 162.81Z" fill="#EDEDED"/>
</g>
<defs>
<clipPath id="clip0">
<rect width="222" height="222" fill="white"/>
</clipPath>
</defs>
</svg>
